NotoSerifAhom-Regular.ufo
<glyph name="ka_ahom" format="2">
  <advance width="944"/>
  <unicode hex="11700"/>
  <outline>
    <contour>
      <point x="180" y="-10" type="curve" smooth="yes"/>
      <point x="204" y="-10"/>
      <point x="224" y="-2"/>
      <point x="224" y="15" type="curve" smooth="yes"/>
      <point x="224" y="354" type="line" smooth="yes"/>
      <point x="224" y="356"/>
      <point x="224" y="359"/>
      <point x="223" y="362" type="curve"/>
      <point x="272" y="425"/>
      <point x="337" y="478"/>
      <point x="373" y="478" type="curve" smooth="yes"/>
      <point x="417" y="478"/>
      <point x="434" y="447"/>
      <point x="434" y="353" type="curve" smooth="yes"/>
      <point x="434" y="15" type="line" smooth="yes"/>
      <point x="434" y="-2"/>
      <point x="456" y="-10"/>
      <point x="479" y="-10" type="curve" smooth="yes"/>
      <point x="501" y="-10"/>
      <point x="524" y="-2"/>
      <point x="524" y="15" type="curve" smooth="yes"/>
      <point x="524" y="362" type="line"/>
      <point x="573" y="425"/>
      <point x="637" y="478"/>
      <point x="673" y="478" type="curve" smooth="yes"/>
      <point x="717" y="478"/>
      <point x="734" y="447"/>
      <point x="734" y="353" type="curve" smooth="yes"/>
      <point x="734" y="15" type="line" smooth="yes"/>
      <point x="734" y="-2"/>
      <point x="757" y="-10"/>
      <point x="781" y="-10" type="curve" smooth="yes"/>
      <point x="802" y="-10"/>
      <point x="824" y="-2"/>
      <point x="824" y="15" type="curve" smooth="yes"/>
      <point x="824" y="377" type="line" smooth="yes"/>
      <point x="824" y="529"/>
      <point x="772" y="560"/>
      <point x="710" y="560" type="curve" smooth="yes"/>
      <point x="647" y="560"/>
      <point x="570" y="497"/>
      <point x="520" y="442" type="curve"/>
      <point x="506" y="538"/>
      <point x="462" y="560"/>
      <point x="410" y="560" type="curve" smooth="yes"/>
      <point x="341" y="560"/>
      <point x="256" y="485"/>
      <point x="206" y="427" type="curve"/>
      <point x="187" y="491"/>
      <point x="126" y="560"/>
      <point x="66" y="560" type="curve" smooth="yes"/>
      <point x="45" y="560"/>
      <point x="20" y="523"/>
      <point x="20" y="499" type="curve" smooth="yes"/>
      <point x="20" y="487"/>
      <point x="26" y="481"/>
      <point x="36" y="477" type="curve" smooth="yes"/>
      <point x="93" y="454"/>
      <point x="134" y="410"/>
      <point x="134" y="336" type="curve" smooth="yes"/>
      <point x="134" y="15" type="line" smooth="yes"/>
      <point x="134" y="-2"/>
      <point x="159" y="-10"/>
    </contour>
  </outline>
</glyph>
<glyph name="kha_ahom" format="2">
  <advance width="861"/>
  <unicode hex="11701"/>
  <outline>
    <contour>
      <point x="180" y="-10" type="curve" smooth="yes"/>
      <point x="204" y="-10"/>
      <point x="224" y="-2"/>
      <point x="224" y="15" type="curve" smooth="yes"/>
      <point x="224" y="170" type="line"/>
      <point x="355" y="371"/>
      <point x="473" y="426"/>
      <point x="547" y="426" type="curve" smooth="yes"/>
      <point x="626" y="426"/>
      <point x="687" y="390"/>
      <point x="687" y="277" type="curve" smooth="yes"/>
      <point x="687" y="154"/>
      <point x="618" y="98"/>
      <point x="561" y="98" type="curve" smooth="yes"/>
      <point x="524" y="98"/>
      <point x="518" y="124"/>
      <point x="513" y="150" type="curve" smooth="yes"/>
      <point x="507" y="179"/>
      <point x="500" y="208"/>
      <point x="454" y="208" type="curve" smooth="yes"/>
      <point x="424" y="208"/>
      <point x="395" y="181"/>
      <point x="395" y="143" type="curve" smooth="yes"/>
      <point x="395" y="72"/>
      <point x="479" y="34"/>
      <point x="552" y="34" type="curve" smooth="yes"/>
      <point x="670" y="34"/>
      <point x="781" y="113"/>
      <point x="781" y="280" type="curve" smooth="yes"/>
      <point x="781" y="428"/>
      <point x="688" y="508"/>
      <point x="561" y="508" type="curve" smooth="yes"/>
      <point x="433" y="508"/>
      <point x="316" y="395"/>
      <point x="224" y="267" type="curve"/>
      <point x="224" y="395" type="line" smooth="yes"/>
      <point x="224" y="507"/>
      <point x="151" y="560"/>
      <point x="73" y="560" type="curve" smooth="yes"/>
      <point x="38" y="560"/>
      <point x="20" y="523"/>
      <point x="20" y="499" type="curve" smooth="yes"/>
      <point x="20" y="487"/>
      <point x="25" y="477"/>
      <point x="36" y="477" type="curve" smooth="yes"/>
      <point x="53" y="477" type="line" smooth="yes"/>
      <point x="94" y="477"/>
      <point x="134" y="456"/>
      <point x="134" y="383" type="curve" smooth="yes"/>
      <point x="134" y="15" type="line" smooth="yes"/>
      <point x="134" y="-4"/>
      <point x="159" y="-10"/>
    </contour>
  </outline>
</glyph>
<glyph name="nga_ahom" format="2">
  <advance width="610"/>
  <unicode hex="11702"/>
  <outline>
    <contour>
      <point x="249" y="-14" type="curve" smooth="yes"/>
      <point x="379" y="-14"/>
      <point x="510" y="114"/>
      <point x="510" y="220" type="curve" smooth="yes"/>
      <point x="510" y="260"/>
      <point x="491" y="314"/>
      <point x="423" y="314" type="curve" smooth="yes"/>
      <point x="379" y="314"/>
      <point x="356" y="275"/>
      <point x="356" y="251" type="curve" smooth="yes"/>
      <point x="356" y="217"/>
      <point x="376" y="206"/>
      <point x="394" y="196" type="curve" smooth="yes"/>
      <point x="409" y="188"/>
      <point x="423" y="179"/>
      <point x="423" y="164" type="curve" smooth="yes"/>
      <point x="423" y="114"/>
      <point x="355" y="38"/>
      <point x="276" y="38" type="curve" smooth="yes"/>
      <point x="260" y="38"/>
      <point x="224" y="49"/>
      <point x="224" y="96" type="curve" smooth="yes"/>
      <point x="224" y="328" type="line"/>
      <point x="365" y="361"/>
      <point x="461" y="474"/>
      <point x="461" y="592" type="curve" smooth="yes"/>
      <point x="461" y="620"/>
      <point x="452" y="635"/>
      <point x="434" y="635" type="curve" smooth="yes"/>
      <point x="422" y="635"/>
      <point x="413" y="628"/>
      <point x="411" y="610" type="curve" smooth="yes"/>
      <point x="402" y="519"/>
      <point x="318" y="439"/>
      <point x="224" y="407" type="curve"/>
      <point x="223" y="459"/>
      <point x="178" y="560"/>
      <point x="73" y="560" type="curve" smooth="yes"/>
      <point x="38" y="560"/>
      <point x="20" y="523"/>
      <point x="20" y="499" type="curve" smooth="yes"/>
      <point x="20" y="487"/>
      <point x="25" y="477"/>
      <point x="36" y="477" type="curve" smooth="yes"/>
      <point x="53" y="477" type="line" smooth="yes"/>
      <point x="128" y="477"/>
      <point x="134" y="397"/>
      <point x="134" y="383" type="curve" smooth="yes"/>
      <point x="134" y="105" type="line" smooth="yes"/>
      <point x="134" y="18"/>
      <point x="184" y="-14"/>
    </contour>
  </outline>
</glyph>
<glyph name="na_ahom" format="2">
  <advance width="648"/>
  <unicode hex="11703"/>
  <outline>
    <contour>
      <point x="481" y="-24" type="curve" smooth="yes"/>
      <point x="510" y="-24"/>
      <point x="528" y="-17"/>
      <point x="528" y="1" type="curve" smooth="yes"/>
      <point x="528" y="213" type="line" smooth="yes"/>
      <point x="528" y="229"/>
      <point x="518" y="248"/>
      <point x="498" y="248" type="curve" smooth="yes"/>
      <point x="481" y="248"/>
      <point x="451" y="231"/>
      <point x="424" y="214" type="curve" smooth="yes"/>
      <point x="210" y="81" type="line"/>
      <point x="210" y="362" type="line"/>
      <point x="267" y="413"/>
      <point x="357" y="471"/>
      <point x="392" y="471" type="curve" smooth="yes"/>
      <point x="425" y="471"/>
      <point x="430" y="454"/>
      <point x="435" y="436" type="curve" smooth="yes"/>
      <point x="440" y="418"/>
      <point x="453" y="399"/>
      <point x="487" y="399" type="curve" smooth="yes"/>
      <point x="521" y="399"/>
      <point x="548" y="421"/>
      <point x="548" y="476" type="curve" smooth="yes"/>
      <point x="548" y="526"/>
      <point x="518" y="560"/>
      <point x="456" y="560" type="curve" smooth="yes"/>
      <point x="394" y="560"/>
      <point x="286" y="488"/>
      <point x="210" y="425" type="curve"/>
      <point x="210" y="525" type="line" smooth="yes"/>
      <point x="210" y="542"/>
      <point x="190" y="550"/>
      <point x="166" y="550" type="curve" smooth="yes"/>
      <point x="145" y="550"/>
      <point x="120" y="544"/>
      <point x="120" y="525" type="curve" smooth="yes"/>
      <point x="120" y="19" type="line" smooth="yes"/>
      <point x="120" y="1"/>
      <point x="126" y="-10"/>
      <point x="148" y="-10" type="curve" smooth="yes"/>
      <point x="174" y="-10"/>
      <point x="232" y="26"/>
      <point x="261" y="44" type="curve" smooth="yes"/>
      <point x="438" y="156" type="line"/>
      <point x="438" y="1" type="line" smooth="yes"/>
      <point x="438" y="-16"/>
      <point x="455" y="-24"/>
    </contour>
  </outline>
</glyph>
<glyph name="ta_ahom" format="2">
  <advance width="882"/>
  <unicode hex="11704"/>
  <outline>
    <contour>
      <point x="213" y="-14" type="curve" smooth="yes"/>
      <point x="336" y="-14"/>
      <point x="404" y="97"/>
      <point x="433" y="208" type="curve"/>
      <point x="429" y="218" type="line"/>
      <point x="443" y="66" type="line" smooth="yes"/>
      <point x="448" y="11"/>
      <point x="471" y="10"/>
      <point x="491" y="10" type="curve" smooth="yes"/>
      <point x="503" y="10"/>
      <point x="522" y="20"/>
      <point x="532" y="46" type="curve" smooth="yes"/>
      <point x="617" y="265" type="line" smooth="yes"/>
      <point x="649" y="346"/>
      <point x="661" y="374"/>
      <point x="671" y="374" type="curve" smooth="yes"/>
      <point x="681" y="374"/>
      <point x="686" y="353"/>
      <point x="695" y="310" type="curve" smooth="yes"/>
      <point x="756" y="33" type="line" smooth="yes"/>
      <point x="764" y="-3"/>
      <point x="785" y="-10"/>
      <point x="809" y="-10" type="curve" smooth="yes"/>
      <point x="845" y="-10"/>
      <point x="852" y="8"/>
      <point x="852" y="22" type="curve" smooth="yes"/>
      <point x="852" y="30"/>
      <point x="849" y="45"/>
      <point x="846" y="59" type="curve" smooth="yes"/>
      <point x="766" y="438" type="line" smooth="yes"/>
      <point x="743" y="548"/>
      <point x="730" y="560"/>
      <point x="707" y="560" type="curve" smooth="yes"/>
      <point x="686" y="560"/>
      <point x="662" y="531"/>
      <point x="633" y="458" type="curve" smooth="yes"/>
      <point x="508" y="148" type="line"/>
      <point x="518" y="146" type="line"/>
      <point x="499" y="313" type="line" smooth="yes"/>
      <point x="483" y="453"/>
      <point x="457" y="560"/>
      <point x="334" y="560" type="curve" smooth="yes"/>
      <point x="210" y="560"/>
      <point x="60" y="364"/>
      <point x="60" y="169" type="curve" smooth="yes"/>
      <point x="60" y="33"/>
      <point x="133" y="-14"/>
    </contour>
    <contour>
      <point x="234" y="68" type="curve" smooth="yes"/>
      <point x="177" y="68"/>
      <point x="154" y="124"/>
      <point x="154" y="196" type="curve" smooth="yes"/>
      <point x="154" y="382"/>
      <point x="229" y="483"/>
      <point x="319" y="483" type="curve" smooth="yes"/>
      <point x="367" y="483"/>
      <point x="400" y="450"/>
      <point x="409" y="357" type="curve" smooth="yes"/>
      <point x="413" y="317" type="line"/>
      <point x="376" y="106"/>
      <point x="275" y="68"/>
    </contour>
  </outline>
</glyph>
<glyph name="alt_ta_ahom" format="2">
  <advance width="667"/>
  <unicode hex="11705"/>
  <outline>
    <contour>
      <point x="213" y="-14" type="curve" smooth="yes"/>
      <point x="336" y="-14"/>
      <point x="404" y="97"/>
      <point x="433" y="208" type="curve"/>
      <point x="429" y="218" type="line"/>
      <point x="443" y="66" type="line" smooth="yes"/>
      <point x="448" y="11"/>
      <point x="471" y="10"/>
      <point x="491" y="10" type="curve" smooth="yes"/>
      <point x="506" y="10"/>
      <point x="534" y="23"/>
      <point x="534" y="67" type="curve" smooth="yes"/>
      <point x="534" y="80"/>
      <point x="532" y="93"/>
      <point x="529" y="107" type="curve" smooth="yes"/>
      <point x="526" y="123"/>
      <point x="524" y="140"/>
      <point x="524" y="158" type="curve" smooth="yes"/>
      <point x="524" y="243"/>
      <point x="559" y="329"/>
      <point x="625" y="381" type="curve" smooth="yes"/>
      <point x="634" y="388"/>
      <point x="637" y="398"/>
      <point x="637" y="405" type="curve" smooth="yes"/>
      <point x="637" y="417"/>
      <point x="630" y="427"/>
      <point x="619" y="427" type="curve" smooth="yes"/>
      <point x="609" y="427"/>
      <point x="595" y="421"/>
      <point x="578" y="409" type="curve" smooth="yes"/>
      <point x="546" y="387"/>
      <point x="519" y="359"/>
      <point x="497" y="327" type="curve"/>
      <point x="476" y="460"/>
      <point x="452" y="560"/>
      <point x="334" y="560" type="curve" smooth="yes"/>
      <point x="210" y="560"/>
      <point x="60" y="364"/>
      <point x="60" y="169" type="curve" smooth="yes"/>
      <point x="60" y="33"/>
      <point x="133" y="-14"/>
    </contour>
    <contour>
      <point x="234" y="68" type="curve" smooth="yes"/>
      <point x="177" y="68"/>
      <point x="154" y="124"/>
      <point x="154" y="196" type="curve" smooth="yes"/>
      <point x="154" y="382"/>
      <point x="229" y="483"/>
      <point x="319" y="483" type="curve" smooth="yes"/>
      <point x="367" y="483"/>
      <point x="400" y="450"/>
      <point x="409" y="357" type="curve" smooth="yes"/>
      <point x="413" y="317" type="line"/>
      <point x="376" y="106"/>
      <point x="275" y="68"/>
    </contour>
  </outline>
</glyph>
<glyph name="pha_ahom" format="2">
  <advance width="1039"/>
  <unicode hex="11707"/>
  <outline>
    <contour>
      <point x="298" y="-14" type="curve" smooth="yes"/>
      <point x="377" y="-14"/>
      <point x="454" y="35"/>
      <point x="508" y="112" type="curve"/>
      <point x="530" y="39"/>
      <point x="583" y="-12"/>
      <point x="671" y="-12" type="curve" smooth="yes"/>
      <point x="821" y="-12"/>
      <point x="959" y="161"/>
      <point x="959" y="344" type="curve" smooth="yes"/>
      <point x="959" y="463"/>
      <point x="905" y="560"/>
      <point x="784" y="560" type="curve" smooth="yes"/>
      <point x="706" y="560"/>
      <point x="629" y="512"/>
      <point x="575" y="439" type="curve"/>
      <point x="558" y="510"/>
      <point x="522" y="560"/>
      <point x="486" y="560" type="curve" smooth="yes"/>
      <point x="462" y="560"/>
      <point x="448" y="545"/>
      <point x="448" y="527" type="curve" smooth="yes"/>
      <point x="448" y="513"/>
      <point x="456" y="500"/>
      <point x="468" y="486" type="curve" smooth="yes"/>
      <point x="482" y="469"/>
      <point x="504" y="429"/>
      <point x="504" y="324" type="curve" smooth="yes"/>
      <point x="504" y="176"/>
      <point x="425" y="48"/>
      <point x="317" y="48" type="curve" smooth="yes"/>
      <point x="239" y="48"/>
      <point x="224" y="90"/>
      <point x="224" y="155" type="curve" smooth="yes"/>
      <point x="224" y="405" type="line" smooth="yes"/>
      <point x="224" y="457"/>
      <point x="180" y="560"/>
      <point x="73" y="560" type="curve" smooth="yes"/>
      <point x="38" y="560"/>
      <point x="20" y="523"/>
      <point x="20" y="499" type="curve" smooth="yes"/>
      <point x="20" y="487"/>
      <point x="25" y="477"/>
      <point x="36" y="477" type="curve" smooth="yes"/>
      <point x="53" y="477" type="line" smooth="yes"/>
      <point x="128" y="477"/>
      <point x="134" y="397"/>
      <point x="134" y="383" type="curve" smooth="yes"/>
      <point x="134" y="195" type="line" smooth="yes"/>
      <point x="134" y="91"/>
      <point x="156" y="-14"/>
    </contour>
    <contour>
      <point x="700" y="65" type="curve" smooth="yes"/>
      <point x="630" y="65"/>
      <point x="590" y="122"/>
      <point x="590" y="224" type="curve" smooth="yes"/>
      <point x="590" y="378"/>
      <point x="633" y="480"/>
      <point x="748" y="480" type="curve" smooth="yes"/>
      <point x="825" y="480"/>
      <point x="865" y="426"/>
      <point x="865" y="324" type="curve" smooth="yes"/>
      <point x="865" y="186"/>
      <point x="827" y="65"/>
    </contour>
  </outline>
</glyph>
<glyph name="ba_ahom" format="2">
  <advance width="703"/>
  <unicode hex="11708"/>
  <outline>
    <contour>
      <point x="300" y="-14" type="curve" smooth="yes"/>
      <point x="443" y="-14"/>
      <point x="623" y="152"/>
      <point x="623" y="364" type="curve" smooth="yes"/>
      <point x="623" y="487"/>
      <point x="550" y="560"/>
      <point x="444" y="560" type="curve" smooth="yes"/>
      <point x="339" y="560"/>
      <point x="252" y="470"/>
      <point x="211" y="372" type="curve"/>
      <point x="217" y="374" type="line"/>
      <point x="211" y="445"/>
      <point x="144" y="560"/>
      <point x="66" y="560" type="curve" smooth="yes"/>
      <point x="43" y="560"/>
      <point x="20" y="527"/>
      <point x="20" y="499" type="curve" smooth="yes"/>
      <point x="20" y="487"/>
      <point x="26" y="481"/>
      <point x="36" y="477" type="curve" smooth="yes"/>
      <point x="81" y="458"/>
      <point x="134" y="410"/>
      <point x="134" y="336" type="curve" smooth="yes"/>
      <point x="134" y="195" type="line" smooth="yes"/>
      <point x="134" y="91"/>
      <point x="161" y="-14"/>
    </contour>
    <contour>
      <point x="309" y="48" type="curve" smooth="yes"/>
      <point x="245" y="48"/>
      <point x="224" y="82"/>
      <point x="224" y="175" type="curve" smooth="yes"/>
      <point x="224" y="268" type="line"/>
      <point x="265" y="462"/>
      <point x="385" y="480"/>
      <point x="416" y="480" type="curve" smooth="yes"/>
      <point x="497" y="480"/>
      <point x="529" y="405"/>
      <point x="529" y="352" type="curve" smooth="yes"/>
      <point x="529" y="181"/>
      <point x="435" y="48"/>
    </contour>
  </outline>
</glyph>
<glyph name="ma_ahom" format="2">
  <advance width="663"/>
  <unicode hex="11709"/>
  <outline>
    <contour>
      <point x="298" y="-14" type="curve" smooth="yes"/>
      <point x="433" y="-14"/>
      <point x="583" y="143"/>
      <point x="583" y="345" type="curve" smooth="yes"/>
      <point x="583" y="502"/>
      <point x="504" y="560"/>
      <point x="432" y="560" type="curve" smooth="yes"/>
      <point x="396" y="560"/>
      <point x="372" y="536"/>
      <point x="372" y="505" type="curve" smooth="yes"/>
      <point x="372" y="460"/>
      <point x="401" y="446"/>
      <point x="432" y="431" type="curve" smooth="yes"/>
      <point x="467" y="414"/>
      <point x="504" y="395"/>
      <point x="504" y="324" type="curve" smooth="yes"/>
      <point x="504" y="316" type="line"/>
      <point x="224" y="316" type="line"/>
      <point x="224" y="405" type="line" smooth="yes"/>
      <point x="224" y="457"/>
      <point x="180" y="560"/>
      <point x="73" y="560" type="curve" smooth="yes"/>
      <point x="38" y="560"/>
      <point x="20" y="523"/>
      <point x="20" y="499" type="curve" smooth="yes"/>
      <point x="20" y="487"/>
      <point x="25" y="477"/>
      <point x="36" y="477" type="curve" smooth="yes"/>
      <point x="53" y="477" type="line" smooth="yes"/>
      <point x="128" y="477"/>
      <point x="134" y="397"/>
      <point x="134" y="383" type="curve" smooth="yes"/>
      <point x="134" y="195" type="line" smooth="yes"/>
      <point x="134" y="91"/>
      <point x="156" y="-14"/>
    </contour>
    <contour>
      <point x="317" y="48" type="curve" smooth="yes"/>
      <point x="239" y="48"/>
      <point x="224" y="90"/>
      <point x="224" y="155" type="curve" smooth="yes"/>
      <point x="224" y="264" type="line"/>
      <point x="499" y="264" type="line"/>
      <point x="481" y="143"/>
      <point x="410" y="48"/>
    </contour>
  </outline>
</glyph>
<glyph name="ja_ahom" format="2">
  <advance width="953"/>
  <unicode hex="1170A"/>
  <outline>
    <contour>
      <point x="315" y="-14" type="curve" smooth="yes"/>
      <point x="370" y="-14"/>
      <point x="435" y="13"/>
      <point x="468" y="72" type="curve"/>
      <point x="455" y="71" type="line"/>
      <point x="472" y="22"/>
      <point x="519" y="-14"/>
      <point x="588" y="-14" type="curve" smooth="yes"/>
      <point x="723" y="-14"/>
      <point x="873" y="143"/>
      <point x="873" y="345" type="curve" smooth="yes"/>
      <point x="873" y="502"/>
      <point x="796" y="560"/>
      <point x="724" y="560" type="curve" smooth="yes"/>
      <point x="688" y="560"/>
      <point x="662" y="534"/>
      <point x="662" y="499" type="curve" smooth="yes"/>
      <point x="662" y="460"/>
      <point x="690" y="444"/>
      <point x="721" y="430" type="curve" smooth="yes"/>
      <point x="756" y="414"/>
      <point x="794" y="396"/>
      <point x="794" y="324" type="curve" smooth="yes"/>
      <point x="794" y="176"/>
      <point x="715" y="48"/>
      <point x="607" y="48" type="curve" smooth="yes"/>
      <point x="552" y="48"/>
      <point x="524" y="82"/>
      <point x="524" y="175" type="curve" smooth="yes"/>
      <point x="524" y="535" type="line" smooth="yes"/>
      <point x="524" y="552"/>
      <point x="501" y="560"/>
      <point x="479" y="560" type="curve" smooth="yes"/>
      <point x="456" y="560"/>
      <point x="434" y="552"/>
      <point x="434" y="535" type="curve" smooth="yes"/>
      <point x="434" y="247" type="line" smooth="yes"/>
      <point x="434" y="119"/>
      <point x="400" y="49"/>
      <point x="321" y="49" type="curve" smooth="yes"/>
      <point x="264" y="49"/>
      <point x="224" y="62"/>
      <point x="224" y="219" type="curve" smooth="yes"/>
      <point x="224" y="405" type="line" smooth="yes"/>
      <point x="224" y="457"/>
      <point x="180" y="560"/>
      <point x="73" y="560" type="curve" smooth="yes"/>
      <point x="38" y="560"/>
      <point x="20" y="523"/>
      <point x="20" y="499" type="curve" smooth="yes"/>
      <point x="20" y="487"/>
      <point x="25" y="477"/>
      <point x="36" y="477" type="curve" smooth="yes"/>
      <point x="53" y="477" type="line" smooth="yes"/>
      <point x="102" y="477"/>
      <point x="134" y="441"/>
      <point x="134" y="383" type="curve" smooth="yes"/>
      <point x="134" y="219" type="line" smooth="yes"/>
      <point x="134" y="32"/>
      <point x="219" y="-14"/>
    </contour>
  </outline>
</glyph>
<glyph name="cha_ahom" format="2">
  <advance width="1033"/>
  <unicode hex="1170B"/>
  <outline>
    <contour>
      <point x="650" y="-14" type="curve" smooth="yes"/>
      <point x="793" y="-14"/>
      <point x="953" y="152"/>
      <point x="953" y="364" type="curve" smooth="yes"/>
      <point x="953" y="487"/>
      <point x="880" y="560"/>
      <point x="774" y="560" type="curve" smooth="yes"/>
      <point x="683" y="560"/>
      <point x="614" y="493"/>
      <point x="574" y="410" type="curve"/>
      <point x="574" y="438" type="line" smooth="yes"/>
      <point x="574" y="542"/>
      <point x="546" y="560"/>
      <point x="518" y="560" type="curve" smooth="yes"/>
      <point x="485" y="560"/>
      <point x="443" y="508"/>
      <point x="376" y="390" type="curve" smooth="yes"/>
      <point x="224" y="122" type="line"/>
      <point x="224" y="339" type="line" smooth="yes"/>
      <point x="224" y="482"/>
      <point x="116" y="560"/>
      <point x="66" y="560" type="curve" smooth="yes"/>
      <point x="45" y="560"/>
      <point x="20" y="523"/>
      <point x="20" y="499" type="curve" smooth="yes"/>
      <point x="20" y="487"/>
      <point x="26" y="481"/>
      <point x="36" y="477" type="curve" smooth="yes"/>
      <point x="87" y="455"/>
      <point x="134" y="405"/>
      <point x="134" y="326" type="curve" smooth="yes"/>
      <point x="134" y="73" type="line" smooth="yes"/>
      <point x="134" y="4"/>
      <point x="159" y="-10"/>
      <point x="180" y="-10" type="curve" smooth="yes"/>
      <point x="201" y="-10"/>
      <point x="216" y="-2"/>
      <point x="229" y="20" type="curve" smooth="yes"/>
      <point x="421" y="350" type="line" smooth="yes"/>
      <point x="451" y="401"/>
      <point x="467" y="428"/>
      <point x="477" y="428" type="curve" smooth="yes"/>
      <point x="484" y="428"/>
      <point x="484" y="418"/>
      <point x="484" y="374" type="curve" smooth="yes"/>
      <point x="484" y="195" type="line" smooth="yes"/>
      <point x="484" y="91"/>
      <point x="511" y="-14"/>
    </contour>
    <contour>
      <point x="659" y="48" type="curve" smooth="yes"/>
      <point x="595" y="48"/>
      <point x="574" y="82"/>
      <point x="574" y="175" type="curve" smooth="yes"/>
      <point x="574" y="253" type="line"/>
      <point x="612" y="461"/>
      <point x="714" y="480"/>
      <point x="746" y="480" type="curve" smooth="yes"/>
      <point x="839" y="480"/>
      <point x="859" y="405"/>
      <point x="859" y="352" type="curve" smooth="yes"/>
      <point x="859" y="181"/>
      <point x="785" y="48"/>
    </contour>
  </outline>
</glyph>
<glyph name="tha_ahom" format="2">
  <advance width="1036"/>
  <unicode hex="1170C"/>
  <outline>
    <contour>
      <point x="308" y="-12" type="curve" smooth="yes"/>
      <point x="389" y="-12"/>
      <point x="460" y="32"/>
      <point x="509" y="101" type="curve"/>
      <point x="533" y="34"/>
      <point x="584" y="-12"/>
      <point x="668" y="-12" type="curve" smooth="yes"/>
      <point x="818" y="-12"/>
      <point x="956" y="161"/>
      <point x="956" y="344" type="curve" smooth="yes"/>
      <point x="956" y="463"/>
      <point x="902" y="560"/>
      <point x="781" y="560" type="curve" smooth="yes"/>
      <point x="724" y="560"/>
      <point x="668" y="528"/>
      <point x="620" y="481" type="curve"/>
      <point x="622" y="494"/>
      <point x="623" y="503"/>
      <point x="623" y="511" type="curve" smooth="yes"/>
      <point x="623" y="555"/>
      <point x="603" y="560"/>
      <point x="578" y="560" type="curve" smooth="yes"/>
      <point x="549" y="560"/>
      <point x="544" y="546"/>
      <point x="537" y="505" type="curve" smooth="yes"/>
      <point x="533" y="481" type="line"/>
      <point x="506" y="526"/>
      <point x="462" y="560"/>
      <point x="392" y="560" type="curve" smooth="yes"/>
      <point x="318" y="560"/>
      <point x="251" y="505"/>
      <point x="211" y="431" type="curve"/>
      <point x="218" y="431" type="line"/>
      <point x="208" y="489"/>
      <point x="162" y="560"/>
      <point x="73" y="560" type="curve" smooth="yes"/>
      <point x="38" y="560"/>
      <point x="20" y="523"/>
      <point x="20" y="499" type="curve" smooth="yes"/>
      <point x="20" y="487"/>
      <point x="25" y="477"/>
      <point x="36" y="477" type="curve" smooth="yes"/>
      <point x="53" y="477" type="line" smooth="yes"/>
      <point x="128" y="477"/>
      <point x="134" y="397"/>
      <point x="134" y="383" type="curve" smooth="yes"/>
      <point x="134" y="204" type="line" smooth="yes"/>
      <point x="134" y="85"/>
      <point x="187" y="-12"/>
    </contour>
    <contour>
      <point x="337" y="65" type="curve" smooth="yes"/>
      <point x="267" y="65"/>
      <point x="227" y="122"/>
      <point x="227" y="224" type="curve" smooth="yes"/>
      <point x="227" y="386"/>
      <point x="278" y="485"/>
      <point x="375" y="485" type="curve" smooth="yes"/>
      <point x="463" y="485"/>
      <point x="502" y="426"/>
      <point x="502" y="324" type="curve" smooth="yes"/>
      <point x="502" y="209"/>
      <point x="473" y="65"/>
    </contour>
    <contour>
      <point x="697" y="65" type="curve" smooth="yes"/>
      <point x="627" y="65"/>
      <point x="587" y="122"/>
      <point x="587" y="224" type="curve" smooth="yes"/>
      <point x="587" y="363"/>
      <point x="634" y="485"/>
      <point x="749" y="485" type="curve" smooth="yes"/>
      <point x="826" y="485"/>
      <point x="862" y="426"/>
      <point x="862" y="324" type="curve" smooth="yes"/>
      <point x="862" y="186"/>
      <point x="824" y="65"/>
    </contour>
  </outline>
</glyph>
<glyph name="ra_ahom" format="2">
  <advance width="869"/>
  <unicode hex="1170D"/>
  <outline>
    <contour>
      <point x="187" y="-14" type="curve" smooth="yes"/>
      <point x="285" y="-14"/>
      <point x="361" y="39"/>
      <point x="410" y="122" type="curve"/>
      <point x="448" y="31"/>
      <point x="524" y="-14"/>
      <point x="623" y="-14" type="curve" smooth="yes"/>
      <point x="709" y="-14"/>
      <point x="785" y="33"/>
      <point x="785" y="126" type="curve" smooth="yes"/>
      <point x="785" y="240"/>
      <point x="637" y="333"/>
      <point x="462" y="351" type="curve"/>
      <point x="462" y="368" type="line" smooth="yes"/>
      <point x="462" y="569"/>
      <point x="547" y="624"/>
      <point x="619" y="624" type="curve" smooth="yes"/>
      <point x="684" y="624"/>
      <point x="713" y="596"/>
      <point x="713" y="572" type="curve" smooth="yes"/>
      <point x="713" y="564"/>
      <point x="703" y="560"/>
      <point x="691" y="557" type="curve" smooth="yes"/>
      <point x="669" y="551"/>
      <point x="639" y="539"/>
      <point x="639" y="498" type="curve" smooth="yes"/>
      <point x="639" y="462"/>
      <point x="664" y="442"/>
      <point x="706" y="442" type="curve" smooth="yes"/>
      <point x="754" y="442"/>
      <point x="789" y="480"/>
      <point x="789" y="538" type="curve" smooth="yes"/>
      <point x="789" y="609"/>
      <point x="746" y="690"/>
      <point x="619" y="690" type="curve" smooth="yes"/>
      <point x="501" y="690"/>
      <point x="375" y="579"/>
      <point x="372" y="353" type="curve"/>
      <point x="129" y="344"/>
      <point x="40" y="214"/>
      <point x="40" y="118" type="curve" smooth="yes"/>
      <point x="40" y="75"/>
      <point x="66" y="-14"/>
    </contour>
    <contour>
      <point x="196" y="48" type="curve" smooth="yes"/>
      <point x="145" y="48"/>
      <point x="125" y="90"/>
      <point x="125" y="120" type="curve" smooth="yes"/>
      <point x="125" y="177"/>
      <point x="177" y="266"/>
      <point x="372" y="276" type="curve"/>
      <point x="368" y="140"/>
      <point x="303" y="48"/>
    </contour>
    <contour>
      <point x="623" y="48" type="curve" smooth="yes"/>
      <point x="513" y="48"/>
      <point x="461" y="124"/>
      <point x="461" y="274" type="curve"/>
      <point x="571" y="261"/>
      <point x="700" y="209"/>
      <point x="700" y="124" type="curve" smooth="yes"/>
      <point x="700" y="76"/>
      <point x="681" y="48"/>
    </contour>
  </outline>
</glyph>
<glyph name="la_ahom" format="2">
  <advance width="953"/>
  <unicode hex="1170E"/>
  <outline>
    <contour>
      <point x="618" y="-14" type="curve" smooth="yes"/>
      <point x="763" y="-14"/>
      <point x="873" y="135"/>
      <point x="873" y="345" type="curve" smooth="yes"/>
      <point x="873" y="502"/>
      <point x="796" y="560"/>
      <point x="724" y="560" type="curve" smooth="yes"/>
      <point x="688" y="560"/>
      <point x="662" y="536"/>
      <point x="662" y="502" type="curve" smooth="yes"/>
      <point x="662" y="461"/>
      <point x="689" y="445"/>
      <point x="720" y="431" type="curve" smooth="yes"/>
      <point x="756" y="415"/>
      <point x="794" y="396"/>
      <point x="794" y="324" type="curve" smooth="yes"/>
      <point x="794" y="176"/>
      <point x="745" y="48"/>
      <point x="637" y="48" type="curve" smooth="yes"/>
      <point x="582" y="48"/>
      <point x="554" y="82"/>
      <point x="554" y="175" type="curve" smooth="yes"/>
      <point x="554" y="414" type="line" smooth="yes"/>
      <point x="554" y="526"/>
      <point x="526" y="536"/>
      <point x="498" y="536" type="curve" smooth="yes"/>
      <point x="449" y="536"/>
      <point x="404" y="467"/>
      <point x="346" y="358" type="curve" smooth="yes"/>
      <point x="224" y="130" type="line"/>
      <point x="224" y="338" type="line" smooth="yes"/>
      <point x="224" y="477"/>
      <point x="144" y="560"/>
      <point x="69" y="560" type="curve" smooth="yes"/>
      <point x="43" y="560"/>
      <point x="20" y="531"/>
      <point x="20" y="499" type="curve" smooth="yes"/>
      <point x="20" y="487"/>
      <point x="26" y="481"/>
      <point x="36" y="477" type="curve" smooth="yes"/>
      <point x="102" y="451"/>
      <point x="134" y="423"/>
      <point x="134" y="325" type="curve" smooth="yes"/>
      <point x="134" y="73" type="line" smooth="yes"/>
      <point x="134" y="4"/>
      <point x="159" y="-10"/>
      <point x="180" y="-10" type="curve" smooth="yes"/>
      <point x="198" y="-10"/>
      <point x="216" y="-5"/>
      <point x="231" y="22" type="curve" smooth="yes"/>
      <point x="391" y="318" type="line" smooth="yes"/>
      <point x="421" y="373"/>
      <point x="445" y="416"/>
      <point x="455" y="416" type="curve" smooth="yes"/>
      <point x="464" y="416"/>
      <point x="464" y="394"/>
      <point x="464" y="350" type="curve" smooth="yes"/>
      <point x="464" y="195" type="line" smooth="yes"/>
      <point x="464" y="81"/>
      <point x="499" y="-14"/>
    </contour>
  </outline>
</glyph>
<glyph name="sa_ahom" format="2">
  <advance width="1025"/>
  <unicode hex="1170F"/>
  <outline>
    <contour>
      <point x="178" y="-10" type="curve" smooth="yes"/>
      <point x="199" y="-10"/>
      <point x="214" y="-3"/>
      <point x="232" y="21" type="curve" smooth="yes"/>
      <point x="423" y="281" type="line" smooth="yes"/>
      <point x="475" y="351"/>
      <point x="493" y="375"/>
      <point x="503" y="375" type="curve" smooth="yes"/>
      <point x="513" y="375"/>
      <point x="514" y="358"/>
      <point x="514" y="314" type="curve" smooth="yes"/>
      <point x="514" y="35" type="line" smooth="yes"/>
      <point x="514" y="5"/>
      <point x="537" y="-10"/>
      <point x="561" y="-10" type="curve" smooth="yes"/>
      <point x="594" y="-10"/>
      <point x="620" y="10"/>
      <point x="642" y="27" type="curve" smooth="yes"/>
      <point x="771" y="126"/>
      <point x="915" y="391"/>
      <point x="915" y="560" type="curve" smooth="yes"/>
      <point x="915" y="615"/>
      <point x="900" y="648"/>
      <point x="865" y="648" type="curve" smooth="yes"/>
      <point x="829" y="648"/>
      <point x="813" y="613"/>
      <point x="813" y="588" type="curve" smooth="yes"/>
      <point x="813" y="572"/>
      <point x="815" y="559"/>
      <point x="817" y="546" type="curve" smooth="yes"/>
      <point x="819" y="532"/>
      <point x="821" y="518"/>
      <point x="821" y="504" type="curve" smooth="yes"/>
      <point x="821" y="356"/>
      <point x="699" y="137"/>
      <point x="604" y="64" type="curve"/>
      <point x="604" y="378" type="line" smooth="yes"/>
      <point x="604" y="490"/>
      <point x="583" y="500"/>
      <point x="558" y="500" type="curve" smooth="yes"/>
      <point x="512" y="500"/>
      <point x="433" y="393"/>
      <point x="380" y="321" type="curve" smooth="yes"/>
      <point x="224" y="108" type="line"/>
      <point x="224" y="338" type="line" smooth="yes"/>
      <point x="224" y="477"/>
      <point x="144" y="560"/>
      <point x="69" y="560" type="curve" smooth="yes"/>
      <point x="43" y="560"/>
      <point x="20" y="531"/>
      <point x="20" y="499" type="curve" smooth="yes"/>
      <point x="20" y="487"/>
      <point x="26" y="481"/>
      <point x="36" y="477" type="curve" smooth="yes"/>
      <point x="102" y="451"/>
      <point x="134" y="423"/>
      <point x="134" y="325" type="curve" smooth="yes"/>
      <point x="134" y="73" type="line" smooth="yes"/>
      <point x="134" y="16"/>
      <point x="152" y="-10"/>
    </contour>
  </outline>
</glyph>
<glyph name="nya_ahom" format="2">
  <advance width="920"/>
  <unicode hex="11710"/>
  <outline>
    <contour>
      <point x="579" y="-14" type="curve" smooth="yes"/>
      <point x="709" y="-14"/>
      <point x="840" y="114"/>
      <point x="840" y="220" type="curve" smooth="yes"/>
      <point x="840" y="260"/>
      <point x="821" y="314"/>
      <point x="753" y="314" type="curve" smooth="yes"/>
      <point x="709" y="314"/>
      <point x="686" y="284"/>
      <point x="686" y="253" type="curve" smooth="yes"/>
      <point x="686" y="226"/>
      <point x="699" y="210"/>
      <point x="723" y="196" type="curve" smooth="yes"/>
      <point x="739" y="187"/>
      <point x="753" y="179"/>
      <point x="753" y="161" type="curve" smooth="yes"/>
      <point x="753" y="114"/>
      <point x="685" y="38"/>
      <point x="606" y="38" type="curve" smooth="yes"/>
      <point x="590" y="38"/>
      <point x="554" y="49"/>
      <point x="554" y="96" type="curve" smooth="yes"/>
      <point x="554" y="328" type="line"/>
      <point x="695" y="361"/>
      <point x="791" y="474"/>
      <point x="791" y="592" type="curve" smooth="yes"/>
      <point x="791" y="625"/>
      <point x="783" y="635"/>
      <point x="765" y="635" type="curve" smooth="yes"/>
      <point x="754" y="635"/>
      <point x="743" y="631"/>
      <point x="741" y="610" type="curve" smooth="yes"/>
      <point x="734" y="519"/>
      <point x="648" y="439"/>
      <point x="554" y="407" type="curve"/>
      <point x="554" y="434" type="line" smooth="yes"/>
      <point x="554" y="546"/>
      <point x="529" y="560"/>
      <point x="501" y="560" type="curve" smooth="yes"/>
      <point x="458" y="560"/>
      <point x="411" y="489"/>
      <point x="370" y="411" type="curve" smooth="yes"/>
      <point x="224" y="131" type="line"/>
      <point x="224" y="362" type="line" smooth="yes"/>
      <point x="224" y="490"/>
      <point x="151" y="560"/>
      <point x="66" y="560" type="curve" smooth="yes"/>
      <point x="45" y="560"/>
      <point x="20" y="531"/>
      <point x="20" y="499" type="curve" smooth="yes"/>
      <point x="20" y="487"/>
      <point x="26" y="481"/>
      <point x="36" y="477" type="curve" smooth="yes"/>
      <point x="92" y="455"/>
      <point x="134" y="425"/>
      <point x="134" y="336" type="curve" smooth="yes"/>
      <point x="134" y="73" type="line" smooth="yes"/>
      <point x="134" y="4"/>
      <point x="159" y="-10"/>
      <point x="180" y="-10" type="curve" smooth="yes"/>
      <point x="198" y="-10"/>
      <point x="216" y="-6"/>
      <point x="229" y="19" type="curve" smooth="yes"/>
      <point x="394" y="338" type="line" smooth="yes"/>
      <point x="423" y="393"/>
      <point x="445" y="433"/>
      <point x="455" y="433" type="curve" smooth="yes"/>
      <point x="463" y="433"/>
      <point x="464" y="416"/>
      <point x="464" y="383" type="curve" smooth="yes"/>
      <point x="464" y="105" type="line" smooth="yes"/>
      <point x="464" y="18"/>
      <point x="514" y="-14"/>
    </contour>
  </outline>
</glyph>
<glyph name="ha_ahom" format="2">
  <advance width="724"/>
  <unicode hex="11711"/>
  <outline>
    <contour>
      <point x="180" y="0" type="curve" smooth="yes"/>
      <point x="201" y="0"/>
      <point x="218" y="11"/>
      <point x="229" y="28" type="curve" smooth="yes"/>
      <point x="432" y="350" type="line" smooth="yes"/>
      <point x="478" y="423"/>
      <point x="492" y="445"/>
      <point x="502" y="445" type="curve" smooth="yes"/>
      <point x="514" y="445"/>
      <point x="514" y="418"/>
      <point x="514" y="374" type="curve" smooth="yes"/>
      <point x="514" y="25" type="line" smooth="yes"/>
      <point x="514" y="5"/>
      <point x="537" y="0"/>
      <point x="561" y="0" type="curve" smooth="yes"/>
      <point x="582" y="0"/>
      <point x="604" y="1"/>
      <point x="604" y="25" type="curve" smooth="yes"/>
      <point x="604" y="438" type="line" smooth="yes"/>
      <point x="604" y="539"/>
      <point x="585" y="560"/>
      <point x="544" y="560" type="curve" smooth="yes"/>
      <point x="502" y="560"/>
      <point x="466" y="516"/>
      <point x="388" y="390" type="curve" smooth="yes"/>
      <point x="224" y="127" type="line"/>
      <point x="224" y="354" type="line" smooth="yes"/>
      <point x="224" y="422"/>
      <point x="151" y="560"/>
      <point x="66" y="560" type="curve" smooth="yes"/>
      <point x="45" y="560"/>
      <point x="20" y="523"/>
      <point x="20" y="499" type="curve" smooth="yes"/>
      <point x="20" y="487"/>
      <point x="26" y="481"/>
      <point x="36" y="477" type="curve" smooth="yes"/>
      <point x="127" y="438"/>
      <point x="134" y="350"/>
      <point x="134" y="336" type="curve" smooth="yes"/>
      <point x="134" y="83" type="line" smooth="yes"/>
      <point x="134" y="14"/>
      <point x="159" y="0"/>
    </contour>
  </outline>
</glyph>
<glyph name="a_ahom" format="2">
  <advance width="944"/>
  <unicode hex="11712"/>
  <outline>
    <contour>
      <point x="180" y="-10" type="curve" smooth="yes"/>
      <point x="204" y="-10"/>
      <point x="224" y="-2"/>
      <point x="224" y="15" type="curve" smooth="yes"/>
      <point x="224" y="364" type="line"/>
      <point x="272" y="425"/>
      <point x="337" y="478"/>
      <point x="373" y="478" type="curve" smooth="yes"/>
      <point x="417" y="478"/>
      <point x="434" y="447"/>
      <point x="434" y="353" type="curve" smooth="yes"/>
      <point x="434" y="15" type="line" smooth="yes"/>
      <point x="434" y="-2"/>
      <point x="456" y="-10"/>
      <point x="479" y="-10" type="curve" smooth="yes"/>
      <point x="501" y="-10"/>
      <point x="524" y="-2"/>
      <point x="524" y="15" type="curve" smooth="yes"/>
      <point x="524" y="362" type="line"/>
      <point x="573" y="425"/>
      <point x="637" y="478"/>
      <point x="673" y="478" type="curve" smooth="yes"/>
      <point x="717" y="478"/>
      <point x="734" y="447"/>
      <point x="734" y="353" type="curve" smooth="yes"/>
      <point x="734" y="15" type="line" smooth="yes"/>
      <point x="734" y="-5"/>
      <point x="757" y="-10"/>
      <point x="781" y="-10" type="curve" smooth="yes"/>
      <point x="802" y="-10"/>
      <point x="824" y="-9"/>
      <point x="824" y="15" type="curve" smooth="yes"/>
      <point x="824" y="377" type="line" smooth="yes"/>
      <point x="824" y="529"/>
      <point x="772" y="560"/>
      <point x="710" y="560" type="curve" smooth="yes"/>
      <point x="647" y="560"/>
      <point x="570" y="497"/>
      <point x="520" y="442" type="curve"/>
      <point x="506" y="538"/>
      <point x="462" y="560"/>
      <point x="410" y="560" type="curve" smooth="yes"/>
      <point x="382" y="560"/>
      <point x="353" y="549"/>
      <point x="323" y="530" type="curve"/>
      <point x="317" y="507" type="line"/>
      <point x="389" y="624"/>
      <point x="442" y="638"/>
      <point x="463" y="638" type="curve" smooth="yes"/>
      <point x="474" y="638"/>
      <point x="484" y="637"/>
      <point x="495" y="635" type="curve" smooth="yes"/>
      <point x="504" y="633"/>
      <point x="514" y="633"/>
      <point x="523" y="633" type="curve" smooth="yes"/>
      <point x="548" y="633"/>
      <point x="585" y="649"/>
      <point x="585" y="692" type="curve" smooth="yes"/>
      <point x="585" y="728"/>
      <point x="553" y="740"/>
      <point x="531" y="740" type="curve" smooth="yes"/>
      <point x="479" y="740"/>
      <point x="366" y="699"/>
      <point x="244" y="467" type="curve"/>
      <point x="230" y="453"/>
      <point x="217" y="440"/>
      <point x="206" y="427" type="curve"/>
      <point x="180" y="491"/>
      <point x="126" y="560"/>
      <point x="66" y="560" type="curve" smooth="yes"/>
      <point x="45" y="560"/>
      <point x="20" y="523"/>
      <point x="20" y="499" type="curve" smooth="yes"/>
      <point x="20" y="487"/>
      <point x="26" y="481"/>
      <point x="36" y="477" type="curve" smooth="yes"/>
      <point x="127" y="438"/>
      <point x="134" y="350"/>
      <point x="134" y="336" type="curve" smooth="yes"/>
      <point x="134" y="15" type="line" smooth="yes"/>
      <point x="134" y="-4"/>
      <point x="159" y="-10"/>
    </contour>
  </outline>
</glyph>
<glyph name="da_ahom" format="2">
  <advance width="727"/>
  <unicode hex="11713"/>
  <outline>
    <contour>
      <point x="439" y="-240" type="curve" smooth="yes"/>
      <point x="529" y="-240"/>
      <point x="647" y="-172"/>
      <point x="647" y="-14" type="curve" smooth="yes"/>
      <point x="647" y="123"/>
      <point x="544" y="203"/>
      <point x="426" y="203" type="curve" smooth="yes"/>
      <point x="341" y="203"/>
      <point x="271" y="158"/>
      <point x="224" y="106" type="curve"/>
      <point x="224" y="324" type="line" smooth="yes"/>
      <point x="224" y="380"/>
      <point x="213" y="417"/>
      <point x="194" y="453" type="curve"/>
      <point x="205" y="453" type="line" smooth="yes"/>
      <point x="247" y="453"/>
      <point x="290" y="459"/>
      <point x="330" y="465" type="curve" smooth="yes"/>
      <point x="362" y="470"/>
      <point x="392" y="474"/>
      <point x="416" y="474" type="curve" smooth="yes"/>
      <point x="446" y="474"/>
      <point x="467" y="458"/>
      <point x="488" y="442" type="curve" smooth="yes"/>
      <point x="508" y="426"/>
      <point x="528" y="410"/>
      <point x="557" y="410" type="curve" smooth="yes"/>
      <point x="582" y="410"/>
      <point x="625" y="430"/>
      <point x="625" y="478" type="curve" smooth="yes"/>
      <point x="625" y="523"/>
      <point x="596" y="550"/>
      <point x="548" y="550" type="curve" smooth="yes"/>
      <point x="506" y="550"/>
      <point x="458" y="542"/>
      <point x="407" y="531" type="curve" smooth="yes"/>
      <point x="350" y="519"/>
      <point x="291" y="508"/>
      <point x="232" y="508" type="curve" smooth="yes"/>
      <point x="204" y="508"/>
      <point x="176" y="510"/>
      <point x="149" y="517" type="curve"/>
      <point x="125" y="542"/>
      <point x="96" y="560"/>
      <point x="66" y="560" type="curve" smooth="yes"/>
      <point x="45" y="560"/>
      <point x="20" y="523"/>
      <point x="20" y="499" type="curve" smooth="yes"/>
      <point x="20" y="487"/>
      <point x="26" y="481"/>
      <point x="36" y="477" type="curve" smooth="yes"/>
      <point x="127" y="438"/>
      <point x="134" y="350"/>
      <point x="134" y="336" type="curve" smooth="yes"/>
      <point x="134" y="73" type="line" smooth="yes"/>
      <point x="134" y="4"/>
      <point x="159" y="-10"/>
      <point x="180" y="-10" type="curve" smooth="yes"/>
      <point x="208" y="-10"/>
      <point x="221" y="2"/>
      <point x="227" y="13" type="curve" smooth="yes"/>
      <point x="263" y="79"/>
      <point x="326" y="121"/>
      <point x="419" y="121" type="curve" smooth="yes"/>
      <point x="484" y="121"/>
      <point x="553" y="85"/>
      <point x="553" y="-14" type="curve" smooth="yes"/>
      <point x="553" y="-151"/>
      <point x="490" y="-176"/>
      <point x="448" y="-176" type="curve" smooth="yes"/>
      <point x="412" y="-176"/>
      <point x="406" y="-151"/>
      <point x="401" y="-125" type="curve" smooth="yes"/>
      <point x="396" y="-97"/>
      <point x="382" y="-66"/>
      <point x="343" y="-66" type="curve" smooth="yes"/>
      <point x="305" y="-66"/>
      <point x="282" y="-93"/>
      <point x="282" y="-131" type="curve" smooth="yes"/>
      <point x="282" y="-210"/>
      <point x="366" y="-240"/>
    </contour>
  </outline>
</glyph>
<glyph name="dha_ahom" format="2">
  <advance width="1036"/>
  <unicode hex="11714"/>
  <outline>
    <contour>
      <point x="468" y="-320" type="curve" smooth="yes"/>
      <point x="555" y="-320"/>
      <point x="647" y="-180"/>
      <point x="647" y="-41" type="curve" smooth="yes"/>
      <point x="647" y="-23"/>
      <point x="645" y="-5"/>
      <point x="635" y="16" type="curve"/>
      <point x="621" y="7" type="line"/>
      <point x="634" y="-5"/>
      <point x="659" y="-12"/>
      <point x="689" y="-12" type="curve" smooth="yes"/>
      <point x="815" y="-12"/>
      <point x="956" y="156"/>
      <point x="956" y="344" type="curve" smooth="yes"/>
      <point x="956" y="463"/>
      <point x="902" y="560"/>
      <point x="781" y="560" type="curve" smooth="yes"/>
      <point x="718" y="560"/>
      <point x="643" y="519"/>
      <point x="605" y="456" type="curve"/>
      <point x="610" y="451" type="line"/>
      <point x="613" y="465"/>
      <point x="618" y="498"/>
      <point x="618" y="511" type="curve" smooth="yes"/>
      <point x="618" y="548"/>
      <point x="603" y="560"/>
      <point x="578" y="560" type="curve" smooth="yes"/>
      <point x="549" y="560"/>
      <point x="535" y="546"/>
      <point x="532" y="505" type="curve" smooth="yes"/>
      <point x="528" y="453" type="line"/>
      <point x="538" y="453" type="line"/>
      <point x="516" y="518"/>
      <point x="470" y="560"/>
      <point x="392" y="560" type="curve" smooth="yes"/>
      <point x="310" y="560"/>
      <point x="243" y="502"/>
      <point x="205" y="421" type="curve"/>
      <point x="214" y="424" type="line"/>
      <point x="208" y="489"/>
      <point x="162" y="560"/>
      <point x="73" y="560" type="curve" smooth="yes"/>
      <point x="38" y="560"/>
      <point x="20" y="523"/>
      <point x="20" y="499" type="curve" smooth="yes"/>
      <point x="20" y="487"/>
      <point x="25" y="477"/>
      <point x="36" y="477" type="curve" smooth="yes"/>
      <point x="53" y="477" type="line" smooth="yes"/>
      <point x="128" y="477"/>
      <point x="134" y="397"/>
      <point x="134" y="383" type="curve" smooth="yes"/>
      <point x="134" y="204" type="line" smooth="yes"/>
      <point x="134" y="85"/>
      <point x="187" y="-12"/>
      <point x="308" y="-12" type="curve" smooth="yes"/>
      <point x="335" y="-12"/>
      <point x="363" y="-7"/>
      <point x="388" y="9" type="curve"/>
      <point x="378" y="12" type="line"/>
      <point x="354" y="-32"/>
      <point x="337" y="-84"/>
      <point x="337" y="-149" type="curve" smooth="yes"/>
      <point x="337" y="-247"/>
      <point x="386" y="-320"/>
    </contour>
    <contour>
      <point x="487" y="-236" type="curve" smooth="yes"/>
      <point x="443" y="-236"/>
      <point x="417" y="-207"/>
      <point x="417" y="-132" type="curve" smooth="yes"/>
      <point x="417" y="-38"/>
      <point x="460" y="49"/>
      <point x="549" y="159" type="curve"/>
      <point x="531" y="150" type="line"/>
      <point x="552" y="88"/>
      <point x="567" y="10"/>
      <point x="567" y="-55" type="curve" smooth="yes"/>
      <point x="567" y="-179"/>
      <point x="534" y="-236"/>
    </contour>
    <contour>
      <point x="337" y="65" type="curve" smooth="yes"/>
      <point x="267" y="65"/>
      <point x="227" y="122"/>
      <point x="227" y="224" type="curve" smooth="yes"/>
      <point x="227" y="386"/>
      <point x="278" y="485"/>
      <point x="375" y="485" type="curve" smooth="yes"/>
      <point x="463" y="485"/>
      <point x="502" y="426"/>
      <point x="502" y="324" type="curve" smooth="yes"/>
      <point x="502" y="209"/>
      <point x="473" y="65"/>
    </contour>
    <contour>
      <point x="702" y="65" type="curve" smooth="yes"/>
      <point x="627" y="65"/>
      <point x="587" y="122"/>
      <point x="587" y="224" type="curve" smooth="yes"/>
      <point x="587" y="363"/>
      <point x="634" y="485"/>
      <point x="749" y="485" type="curve" smooth="yes"/>
      <point x="826" y="485"/>
      <point x="862" y="426"/>
      <point x="862" y="324" type="curve" smooth="yes"/>
      <point x="862" y="131"/>
      <point x="797" y="65"/>
    </contour>
  </outline>
</glyph>
<glyph name="ga_ahom" format="2">
  <advance width="836"/>
  <unicode hex="11715"/>
  <outline>
    <contour>
      <point x="265" y="-14" type="curve" smooth="yes"/>
      <point x="308" y="-14"/>
      <point x="330" y="6"/>
      <point x="330" y="36" type="curve" smooth="yes"/>
      <point x="330" y="66"/>
      <point x="312" y="91"/>
      <point x="267" y="101" type="curve" smooth="yes"/>
      <point x="218" y="112"/>
      <point x="144" y="130"/>
      <point x="144" y="265" type="curve" smooth="yes"/>
      <point x="144" y="402"/>
      <point x="235" y="492"/>
      <point x="418" y="492" type="curve" smooth="yes"/>
      <point x="602" y="492"/>
      <point x="692" y="402"/>
      <point x="692" y="265" type="curve" smooth="yes"/>
      <point x="692" y="115"/>
      <point x="620" y="83"/>
      <point x="571" y="66" type="curve" smooth="yes"/>
      <point x="542" y="56"/>
      <point x="532" y="36"/>
      <point x="532" y="19" type="curve" smooth="yes"/>
      <point x="532" y="3"/>
      <point x="546" y="-14"/>
      <point x="577" y="-14" type="curve" smooth="yes"/>
      <point x="687" y="-14"/>
      <point x="776" y="118"/>
      <point x="776" y="250" type="curve" smooth="yes"/>
      <point x="776" y="427"/>
      <point x="650" y="560"/>
      <point x="418" y="560" type="curve" smooth="yes"/>
      <point x="200" y="560"/>
      <point x="60" y="423"/>
      <point x="60" y="240" type="curve" smooth="yes"/>
      <point x="60" y="97"/>
      <point x="148" y="-14"/>
    </contour>
  </outline>
</glyph>
<glyph name="alt_ga_ahom" format="2">
  <advance width="1146"/>
  <unicode hex="11716"/>
  <outline>
    <contour>
      <point x="265" y="-14" type="curve" smooth="yes"/>
      <point x="308" y="-14"/>
      <point x="330" y="6"/>
      <point x="330" y="36" type="curve" smooth="yes"/>
      <point x="330" y="60"/>
      <point x="312" y="87"/>
      <point x="267" y="101" type="curve" smooth="yes"/>
      <point x="218" y="116"/>
      <point x="144" y="130"/>
      <point x="144" y="265" type="curve" smooth="yes"/>
      <point x="144" y="422"/>
      <point x="255" y="492"/>
      <point x="378" y="492" type="curve" smooth="yes"/>
      <point x="502" y="492"/>
      <point x="602" y="422"/>
      <point x="602" y="265" type="curve" smooth="yes"/>
      <point x="602" y="115"/>
      <point x="530" y="83"/>
      <point x="481" y="66" type="curve" smooth="yes"/>
      <point x="452" y="56"/>
      <point x="442" y="38"/>
      <point x="442" y="21" type="curve" smooth="yes"/>
      <point x="442" y="5"/>
      <point x="453" y="-14"/>
      <point x="491" y="-14" type="curve" smooth="yes"/>
      <point x="601" y="-14"/>
      <point x="686" y="118"/>
      <point x="686" y="250" type="curve" smooth="yes"/>
      <point x="686" y="329"/>
      <point x="667" y="397"/>
      <point x="629" y="449" type="curve"/>
      <point x="670" y="478"/>
      <point x="723" y="492"/>
      <point x="778" y="492" type="curve" smooth="yes"/>
      <point x="902" y="492"/>
      <point x="1002" y="422"/>
      <point x="1002" y="265" type="curve" smooth="yes"/>
      <point x="1002" y="87"/>
      <point x="916" y="63"/>
      <point x="888" y="63" type="curve" smooth="yes"/>
      <point x="866" y="63"/>
      <point x="858" y="79"/>
      <point x="852" y="97" type="curve" smooth="yes"/>
      <point x="846" y="115"/>
      <point x="836" y="135"/>
      <point x="811" y="135" type="curve" smooth="yes"/>
      <point x="785" y="135"/>
      <point x="759" y="115"/>
      <point x="759" y="81" type="curve" smooth="yes"/>
      <point x="759" y="34"/>
      <point x="799" y="-14"/>
      <point x="872" y="-14" type="curve" smooth="yes"/>
      <point x="996" y="-14"/>
      <point x="1086" y="113"/>
      <point x="1086" y="263" type="curve" smooth="yes"/>
      <point x="1086" y="438"/>
      <point x="980" y="560"/>
      <point x="778" y="560" type="curve" smooth="yes"/>
      <point x="703" y="560"/>
      <point x="636" y="538"/>
      <point x="582" y="498" type="curve"/>
      <point x="531" y="537"/>
      <point x="463" y="560"/>
      <point x="378" y="560" type="curve" smooth="yes"/>
      <point x="200" y="560"/>
      <point x="60" y="433"/>
      <point x="60" y="240" type="curve" smooth="yes"/>
      <point x="60" y="97"/>
      <point x="148" y="-14"/>
    </contour>
  </outline>
</glyph>
<glyph name="gha_ahom" format="2">
  <advance width="964"/>
  <unicode hex="11717"/>
  <outline>
    <contour>
      <point x="297" y="-254" type="curve" smooth="yes"/>
      <point x="413" y="-254"/>
      <point x="522" y="-185"/>
      <point x="522" y="-64" type="curve" smooth="yes"/>
      <point x="522" y="6"/>
      <point x="469" y="75"/>
      <point x="412" y="115" type="curve"/>
      <point x="433" y="150"/>
      <point x="451" y="191"/>
      <point x="469" y="232" type="curve" smooth="yes"/>
      <point x="533" y="377"/>
      <point x="584" y="478"/>
      <point x="696" y="478" type="curve" smooth="yes"/>
      <point x="761" y="478"/>
      <point x="830" y="442"/>
      <point x="830" y="343" type="curve" smooth="yes"/>
      <point x="830" y="206"/>
      <point x="767" y="181"/>
      <point x="725" y="181" type="curve" smooth="yes"/>
      <point x="689" y="181"/>
      <point x="682" y="205"/>
      <point x="678" y="231" type="curve" smooth="yes"/>
      <point x="673" y="260"/>
      <point x="666" y="291"/>
      <point x="618" y="291" type="curve" smooth="yes"/>
      <point x="588" y="291"/>
      <point x="559" y="264"/>
      <point x="559" y="226" type="curve" smooth="yes"/>
      <point x="559" y="147"/>
      <point x="643" y="117"/>
      <point x="716" y="117" type="curve" smooth="yes"/>
      <point x="806" y="117"/>
      <point x="924" y="185"/>
      <point x="924" y="343" type="curve" smooth="yes"/>
      <point x="924" y="480"/>
      <point x="821" y="560"/>
      <point x="703" y="560" type="curve" smooth="yes"/>
      <point x="561" y="560"/>
      <point x="491" y="453"/>
      <point x="420" y="277" type="curve" smooth="yes"/>
      <point x="369" y="151"/>
      <point x="335" y="78"/>
      <point x="276" y="78" type="curve" smooth="yes"/>
      <point x="243" y="78"/>
      <point x="224" y="103"/>
      <point x="224" y="168" type="curve" smooth="yes"/>
      <point x="224" y="371" type="line" smooth="yes"/>
      <point x="224" y="517"/>
      <point x="147" y="560"/>
      <point x="73" y="560" type="curve" smooth="yes"/>
      <point x="38" y="560"/>
      <point x="20" y="523"/>
      <point x="20" y="499" type="curve" smooth="yes"/>
      <point x="20" y="487"/>
      <point x="25" y="477"/>
      <point x="36" y="477" type="curve" smooth="yes"/>
      <point x="53" y="477" type="line" smooth="yes"/>
      <point x="104" y="477"/>
      <point x="134" y="444"/>
      <point x="134" y="383" type="curve" smooth="yes"/>
      <point x="134" y="225" type="line" smooth="yes"/>
      <point x="134" y="121"/>
      <point x="168" y="16"/>
      <point x="271" y="16" type="curve" smooth="yes"/>
      <point x="305" y="16"/>
      <point x="333" y="28"/>
      <point x="357" y="48" type="curve"/>
      <point x="396" y="19"/>
      <point x="428" y="-20"/>
      <point x="428" y="-67" type="curve" smooth="yes"/>
      <point x="428" y="-164"/>
      <point x="357" y="-192"/>
      <point x="302" y="-192" type="curve" smooth="yes"/>
      <point x="202" y="-192"/>
      <point x="137" y="-109"/>
      <point x="121" y="-51" type="curve" smooth="yes"/>
      <point x="117" y="-36"/>
      <point x="112" y="-25"/>
      <point x="81" y="-25" type="curve" smooth="yes"/>
      <point x="60" y="-25"/>
      <point x="45" y="-38"/>
      <point x="45" y="-62" type="curve" smooth="yes"/>
      <point x="45" y="-112"/>
      <point x="120" y="-254"/>
    </contour>
  </outline>
</glyph>
<glyph name="bha_ahom" format="2">
  <advance width="1039"/>
  <unicode hex="11718"/>
  <outline>
    <contour>
      <point x="467" y="-320" type="curve" smooth="yes"/>
      <point x="544" y="-320"/>
      <point x="646" y="-182"/>
      <point x="646" y="-41" type="curve" smooth="yes"/>
      <point x="646" y="-30"/>
      <point x="645" y="-20"/>
      <point x="644" y="-10" type="curve"/>
      <point x="653" y="-11"/>
      <point x="662" y="-12"/>
      <point x="671" y="-12" type="curve" smooth="yes"/>
      <point x="821" y="-12"/>
      <point x="959" y="161"/>
      <point x="959" y="344" type="curve" smooth="yes"/>
      <point x="959" y="463"/>
      <point x="905" y="560"/>
      <point x="784" y="560" type="curve" smooth="yes"/>
      <point x="700" y="560"/>
      <point x="614" y="504"/>
      <point x="560" y="412" type="curve"/>
      <point x="571" y="412" type="line"/>
      <point x="569" y="507"/>
      <point x="526" y="560"/>
      <point x="486" y="560" type="curve" smooth="yes"/>
      <point x="472" y="560"/>
      <point x="450" y="552"/>
      <point x="450" y="531" type="curve" smooth="yes"/>
      <point x="450" y="512"/>
      <point x="456" y="501"/>
      <point x="465" y="489" type="curve" smooth="yes"/>
      <point x="483" y="465"/>
      <point x="504" y="435"/>
      <point x="504" y="324" type="curve" smooth="yes"/>
      <point x="504" y="176"/>
      <point x="425" y="48"/>
      <point x="317" y="48" type="curve" smooth="yes"/>
      <point x="239" y="48"/>
      <point x="224" y="90"/>
      <point x="224" y="165" type="curve" smooth="yes"/>
      <point x="224" y="383" type="line" smooth="yes"/>
      <point x="224" y="502"/>
      <point x="153" y="560"/>
      <point x="73" y="560" type="curve" smooth="yes"/>
      <point x="38" y="560"/>
      <point x="20" y="523"/>
      <point x="20" y="499" type="curve" smooth="yes"/>
      <point x="20" y="487"/>
      <point x="25" y="477"/>
      <point x="36" y="477" type="curve" smooth="yes"/>
      <point x="53" y="477" type="line" smooth="yes"/>
      <point x="97" y="477"/>
      <point x="134" y="443"/>
      <point x="134" y="383" type="curve" smooth="yes"/>
      <point x="134" y="195" type="line" smooth="yes"/>
      <point x="134" y="91"/>
      <point x="156" y="-14"/>
      <point x="298" y="-14" type="curve" smooth="yes"/>
      <point x="327" y="-14"/>
      <point x="357" y="-7"/>
      <point x="384" y="6" type="curve"/>
      <point x="387" y="24" type="line"/>
      <point x="355" y="-24"/>
      <point x="336" y="-84"/>
      <point x="336" y="-149" type="curve" smooth="yes"/>
      <point x="336" y="-247"/>
      <point x="385" y="-320"/>
    </contour>
    <contour>
      <point x="487" y="-236" type="curve" smooth="yes"/>
      <point x="443" y="-236"/>
      <point x="417" y="-207"/>
      <point x="417" y="-132" type="curve" smooth="yes"/>
      <point x="417" y="-38"/>
      <point x="460" y="49"/>
      <point x="549" y="159" type="curve"/>
      <point x="531" y="150" type="line"/>
      <point x="552" y="88"/>
      <point x="567" y="10"/>
      <point x="567" y="-55" type="curve" smooth="yes"/>
      <point x="567" y="-179"/>
      <point x="534" y="-236"/>
    </contour>
    <contour>
      <point x="700" y="65" type="curve" smooth="yes"/>
      <point x="630" y="65"/>
      <point x="590" y="122"/>
      <point x="590" y="224" type="curve" smooth="yes"/>
      <point x="590" y="378"/>
      <point x="633" y="480"/>
      <point x="748" y="480" type="curve" smooth="yes"/>
      <point x="825" y="480"/>
      <point x="865" y="426"/>
      <point x="865" y="324" type="curve" smooth="yes"/>
      <point x="865" y="186"/>
      <point x="827" y="65"/>
    </contour>
  </outline>
</glyph>
<glyph name="jha_ahom" format="2">
  <advance width="953"/>
  <unicode hex="11719"/>
  <outline>
    <contour>
      <point x="446" y="-320" type="curve" smooth="yes"/>
      <point x="523" y="-320"/>
      <point x="611" y="-177"/>
      <point x="611" y="-78" type="curve" smooth="yes"/>
      <point x="611" y="-38"/>
      <point x="600" y="-10"/>
      <point x="585" y="6" type="curve"/>
      <point x="585" y="-16" type="line"/>
      <point x="721" y="-16"/>
      <point x="873" y="141"/>
      <point x="873" y="345" type="curve" smooth="yes"/>
      <point x="873" y="502"/>
      <point x="796" y="560"/>
      <point x="724" y="560" type="curve" smooth="yes"/>
      <point x="688" y="560"/>
      <point x="662" y="536"/>
      <point x="662" y="505" type="curve" smooth="yes"/>
      <point x="662" y="461"/>
      <point x="690" y="446"/>
      <point x="720" y="432" type="curve" smooth="yes"/>
      <point x="755" y="416"/>
      <point x="794" y="397"/>
      <point x="794" y="324" type="curve" smooth="yes"/>
      <point x="794" y="176"/>
      <point x="715" y="48"/>
      <point x="607" y="48" type="curve" smooth="yes"/>
      <point x="552" y="48"/>
      <point x="524" y="82"/>
      <point x="524" y="175" type="curve" smooth="yes"/>
      <point x="524" y="535" type="line" smooth="yes"/>
      <point x="524" y="552"/>
      <point x="501" y="560"/>
      <point x="479" y="560" type="curve" smooth="yes"/>
      <point x="456" y="560"/>
      <point x="434" y="552"/>
      <point x="434" y="535" type="curve" smooth="yes"/>
      <point x="434" y="247" type="line" smooth="yes"/>
      <point x="434" y="119"/>
      <point x="400" y="49"/>
      <point x="321" y="49" type="curve" smooth="yes"/>
      <point x="264" y="49"/>
      <point x="224" y="62"/>
      <point x="224" y="219" type="curve" smooth="yes"/>
      <point x="224" y="365" type="line" smooth="yes"/>
      <point x="224" y="515"/>
      <point x="138" y="560"/>
      <point x="73" y="560" type="curve" smooth="yes"/>
      <point x="44" y="560"/>
      <point x="20" y="536"/>
      <point x="20" y="499" type="curve" smooth="yes"/>
      <point x="20" y="487"/>
      <point x="25" y="477"/>
      <point x="36" y="477" type="curve" smooth="yes"/>
      <point x="53" y="477" type="line" smooth="yes"/>
      <point x="100" y="477"/>
      <point x="134" y="451"/>
      <point x="134" y="365" type="curve" smooth="yes"/>
      <point x="134" y="219" type="line" smooth="yes"/>
      <point x="134" y="32"/>
      <point x="219" y="-14"/>
      <point x="315" y="-14" type="curve" smooth="yes"/>
      <point x="332" y="-14"/>
      <point x="351" y="-11"/>
      <point x="368" y="0" type="curve"/>
      <point x="355" y="4" type="line"/>
      <point x="328" y="-39"/>
      <point x="315" y="-88"/>
      <point x="315" y="-149" type="curve" smooth="yes"/>
      <point x="315" y="-247"/>
      <point x="364" y="-320"/>
    </contour>
    <contour>
      <point x="452" y="-236" type="curve" smooth="yes"/>
      <point x="421" y="-236"/>
      <point x="395" y="-207"/>
      <point x="395" y="-134" type="curve" smooth="yes"/>
      <point x="395" y="-52"/>
      <point x="415" y="1"/>
      <point x="477" y="74" type="curve"/>
      <point x="457" y="74" type="line"/>
      <point x="508" y="19"/>
      <point x="531" y="-21"/>
      <point x="531" y="-92" type="curve" smooth="yes"/>
      <point x="531" y="-179"/>
      <point x="504" y="-236"/>
    </contour>
  </outline>
</glyph>
<glyph name="alt_ba_ahom" format="2">
  <advance width="619"/>
  <unicode hex="1171A"/>
  <outline>
    <contour>
      <point x="350" y="550" type="curve" smooth="yes"/>
      <point x="179" y="550"/>
      <point x="60" y="387"/>
      <point x="60" y="195" type="curve" smooth="yes"/>
      <point x="60" y="122"/>
      <point x="94" y="-4"/>
      <point x="253" y="-4" type="curve" smooth="yes"/>
      <point x="397" y="-4"/>
      <point x="539" y="152"/>
      <point x="539" y="341" type="curve" smooth="yes"/>
      <point x="539" y="467"/>
      <point x="466" y="550"/>
    </contour>
    <contour>
      <point x="252" y="68" type="curve" smooth="yes"/>
      <point x="178" y="68"/>
      <point x="150" y="135"/>
      <point x="150" y="218" type="curve" smooth="yes"/>
      <point x="150" y="336"/>
      <point x="213" y="470"/>
      <point x="330" y="470" type="curve" smooth="yes"/>
      <point x="422" y="470"/>
      <point x="445" y="385"/>
      <point x="445" y="317" type="curve" smooth="yes"/>
      <point x="445" y="181"/>
      <point x="368" y="68"/>
    </contour>
  </outline>
</glyph>
<glyph name="medialLa_ahom" format="2">
  <unicode hex="1171D"/>
  <outline>
    <contour>
      <point x="-488" y="-303" type="curve" smooth="yes"/>
      <point x="-361" y="-303"/>
      <point x="-235" y="-259"/>
      <point x="-169" y="-171" type="curve" smooth="yes"/>
      <point x="-152" y="-149"/>
      <point x="-138" y="-124"/>
      <point x="-137" y="-95" type="curve" smooth="yes"/>
      <point x="-137" y="-81"/>
      <point x="-155" y="-70"/>
      <point x="-177" y="-70" type="curve" smooth="yes"/>
      <point x="-199" y="-70"/>
      <point x="-221" y="-76"/>
      <point x="-227" y="-93" type="curve" smooth="yes"/>
      <point x="-260" y="-185"/>
      <point x="-376" y="-226"/>
      <point x="-488" y="-226" type="curve" smooth="yes"/>
      <point x="-640" y="-226"/>
      <point x="-731" y="-160"/>
      <point x="-785" y="-109" type="curve" smooth="yes"/>
      <point x="-791" y="-104"/>
      <point x="-804" y="-96"/>
      <point x="-810" y="-96" type="curve" smooth="yes"/>
      <point x="-835" y="-96"/>
      <point x="-841" y="-113"/>
      <point x="-841" y="-129" type="curve" smooth="yes"/>
      <point x="-841" y="-176"/>
      <point x="-698" y="-303"/>
    </contour>
  </outline>
</glyph>
<glyph name="medialRa_ahom" format="2">
  <unicode hex="1171E"/>
  <outline>
    <contour>
      <point x="-621" y="-303" type="curve" smooth="yes"/>
      <point x="-441" y="-303"/>
      <point x="-286" y="-260"/>
      <point x="-197" y="-184" type="curve" smooth="yes"/>
      <point x="-170" y="-161"/>
      <point x="-138" y="-122"/>
      <point x="-138" y="-95" type="curve" smooth="yes"/>
      <point x="-138" y="-77"/>
      <point x="-156" y="-70"/>
      <point x="-177" y="-70" type="curve" smooth="yes"/>
      <point x="-212" y="-70"/>
      <point x="-220" y="-82"/>
      <point x="-227" y="-93" type="curve" smooth="yes"/>
      <point x="-286" y="-186"/>
      <point x="-429" y="-226"/>
      <point x="-615" y="-226" type="curve" smooth="yes"/>
      <point x="-765" y="-226"/>
      <point x="-1111" y="-170"/>
      <point x="-1111" y="251" type="curve" smooth="yes"/>
      <point x="-1111" y="590"/>
      <point x="-907" y="733"/>
      <point x="-620" y="733" type="curve" smooth="yes"/>
      <point x="-448" y="733"/>
      <point x="-351" y="704"/>
      <point x="-292" y="678" type="curve" smooth="yes"/>
      <point x="-276" y="671"/>
      <point x="-265" y="667"/>
      <point x="-254" y="667" type="curve" smooth="yes"/>
      <point x="-240" y="667"/>
      <point x="-225" y="679"/>
      <point x="-225" y="696" type="curve" smooth="yes"/>
      <point x="-225" y="712"/>
      <point x="-233" y="720"/>
      <point x="-247" y="728" type="curve" smooth="yes"/>
      <point x="-303" y="760"/>
      <point x="-439" y="800"/>
      <point x="-609" y="800" type="curve" smooth="yes"/>
      <point x="-1068" y="800"/>
      <point x="-1205" y="466"/>
      <point x="-1205" y="249" type="curve" smooth="yes"/>
      <point x="-1205" y="-246"/>
      <point x="-777" y="-303"/>
    </contour>
  </outline>
</glyph>
<glyph name="medialLigaRa_ahom" format="2">
  <unicode hex="1171F"/>
  <outline>
    <contour>
      <point x="200" y="630" type="curve" smooth="yes"/>
      <point x="221" y="630"/>
      <point x="238" y="667"/>
      <point x="238" y="683" type="curve" smooth="yes"/>
      <point x="238" y="693"/>
      <point x="231" y="705"/>
      <point x="222" y="720" type="curve" smooth="yes"/>
      <point x="208" y="744"/>
      <point x="189" y="777"/>
      <point x="189" y="822" type="curve" smooth="yes"/>
      <point x="189" y="885"/>
      <point x="217" y="915"/>
      <point x="262" y="915" type="curve" smooth="yes"/>
      <point x="279" y="915"/>
      <point x="290" y="912"/>
      <point x="301" y="909" type="curve" smooth="yes"/>
      <point x="312" y="906"/>
      <point x="320" y="904"/>
      <point x="333" y="904" type="curve" smooth="yes"/>
      <point x="350" y="904"/>
      <point x="360" y="919"/>
      <point x="360" y="940" type="curve" smooth="yes"/>
      <point x="360" y="965"/>
      <point x="305" y="975"/>
      <point x="260" y="975" type="curve" smooth="yes"/>
      <point x="169" y="975"/>
      <point x="100" y="910"/>
      <point x="100" y="820" type="curve" smooth="yes"/>
      <point x="100" y="722"/>
      <point x="176" y="630"/>
    </contour>
  </outline>
</glyph>
<glyph name="aSign_ahom" format="2">
  <advance width="255"/>
  <unicode hex="11720"/>
  <outline>
    <contour>
      <point x="46" y="380" type="curve" smooth="yes"/>
      <point x="112" y="380"/>
      <point x="174" y="491"/>
      <point x="189" y="538" type="curve" smooth="yes"/>
      <point x="200" y="572"/>
      <point x="205" y="604"/>
      <point x="205" y="639" type="curve" smooth="yes"/>
      <point x="205" y="671"/>
      <point x="198" y="700"/>
      <point x="162" y="700" type="curve" smooth="yes"/>
      <point x="142" y="700"/>
      <point x="134" y="691"/>
      <point x="134" y="669" type="curve" smooth="yes"/>
      <point x="134" y="581"/>
      <point x="91" y="501"/>
      <point x="16" y="463" type="curve" smooth="yes"/>
      <point x="6" y="458"/>
      <point x="0" y="453"/>
      <point x="0" y="441" type="curve" smooth="yes"/>
      <point x="0" y="417"/>
      <point x="25" y="380"/>
    </contour>
    <contour>
      <point x="58" y="-75" type="curve" smooth="yes"/>
      <point x="85" y="-75"/>
      <point x="96" y="-61"/>
      <point x="106" y="-47" type="curve" smooth="yes"/>
      <point x="132" y="-11"/>
      <point x="170" y="45"/>
      <point x="170" y="112" type="curve" smooth="yes"/>
      <point x="170" y="181"/>
      <point x="112" y="250"/>
      <point x="46" y="250" type="curve" smooth="yes"/>
      <point x="25" y="250"/>
      <point x="0" y="213"/>
      <point x="0" y="189" type="curve" smooth="yes"/>
      <point x="0" y="177"/>
      <point x="6" y="171"/>
      <point x="16" y="167" type="curve" smooth="yes"/>
      <point x="72" y="145"/>
      <point x="80" y="105"/>
      <point x="80" y="80" type="curve" smooth="yes"/>
      <point x="80" y="54"/>
      <point x="67" y="29"/>
      <point x="53" y="6" type="curve" smooth="yes"/>
      <point x="41" y="-13"/>
      <point x="32" y="-32"/>
      <point x="32" y="-50" type="curve" smooth="yes"/>
      <point x="32" y="-69"/>
      <point x="47" y="-75"/>
    </contour>
  </outline>
</glyph>
<glyph name="aaSign_ahom" format="2">
  <advance width="264"/>
  <unicode hex="11721"/>
  <outline>
    <contour>
      <point x="267" y="-240" type="curve" smooth="yes"/>
      <point x="316" y="-240"/>
      <point x="414" y="-214"/>
      <point x="414" y="-175" type="curve" smooth="yes"/>
      <point x="414" y="-161"/>
      <point x="402" y="-152"/>
      <point x="385" y="-152" type="curve" smooth="yes"/>
      <point x="380" y="-152"/>
      <point x="375" y="-153"/>
      <point x="371" y="-155" type="curve" smooth="yes"/>
      <point x="334" y="-172"/>
      <point x="302" y="-178"/>
      <point x="258" y="-178" type="curve" smooth="yes"/>
      <point x="196" y="-178"/>
      <point x="154" y="-141"/>
      <point x="154" y="-30" type="curve" smooth="yes"/>
      <point x="154" y="370" type="line" smooth="yes"/>
      <point x="154" y="501"/>
      <point x="86" y="560"/>
      <point x="-29" y="560" type="curve" smooth="yes"/>
      <point x="-61" y="560"/>
      <point x="-80" y="545"/>
      <point x="-80" y="514" type="curve" smooth="yes"/>
      <point x="-80" y="487"/>
      <point x="-56" y="477"/>
      <point x="-32" y="477" type="curve" smooth="yes"/>
      <point x="35" y="477"/>
      <point x="64" y="458"/>
      <point x="64" y="349" type="curve" smooth="yes"/>
      <point x="64" y="-34" type="line" smooth="yes"/>
      <point x="64" y="-167"/>
      <point x="134" y="-240"/>
    </contour>
  </outline>
</glyph>
<glyph name="iSign_ahom" format="2">
  <unicode hex="11722"/>
  <outline>
    <contour>
      <point x="33" y="490" type="curve" smooth="yes"/>
      <point x="129" y="490"/>
      <point x="231" y="599"/>
      <point x="231" y="770" type="curve" smooth="yes"/>
      <point x="231" y="880"/>
      <point x="186" y="968"/>
      <point x="98" y="968" type="curve" smooth="yes"/>
      <point x="-27" y="968"/>
      <point x="-100" y="807"/>
      <point x="-100" y="701" type="curve" smooth="yes"/>
      <point x="-100" y="556"/>
      <point x="-43" y="490"/>
    </contour>
    <contour>
      <point x="53" y="554" type="curve" smooth="yes"/>
      <point x="8" y="554"/>
      <point x="-18" y="607"/>
      <point x="-18" y="691" type="curve" smooth="yes"/>
      <point x="-18" y="859"/>
      <point x="28" y="904"/>
      <point x="83" y="904" type="curve" smooth="yes"/>
      <point x="137" y="904"/>
      <point x="149" y="839"/>
      <point x="149" y="772" type="curve" smooth="yes"/>
      <point x="149" y="656"/>
      <point x="135" y="554"/>
    </contour>
  </outline>
</glyph>
<glyph name="iiSign_ahom" format="2">
  <unicode hex="11723"/>
  <outline>
    <contour>
      <point x="33" y="490" type="curve" smooth="yes"/>
      <point x="129" y="490"/>
      <point x="231" y="599"/>
      <point x="231" y="770" type="curve" smooth="yes"/>
      <point x="231" y="880"/>
      <point x="186" y="968"/>
      <point x="98" y="968" type="curve" smooth="yes"/>
      <point x="-27" y="968"/>
      <point x="-100" y="807"/>
      <point x="-100" y="701" type="curve" smooth="yes"/>
      <point x="-100" y="556"/>
      <point x="-43" y="490"/>
    </contour>
    <contour>
      <point x="53" y="554" type="curve" smooth="yes"/>
      <point x="8" y="554"/>
      <point x="-18" y="607"/>
      <point x="-18" y="691" type="curve" smooth="yes"/>
      <point x="-18" y="698"/>
      <point x="-18" y="705"/>
      <point x="-17" y="712" type="curve"/>
      <point x="147" y="712" type="line"/>
      <point x="142" y="623"/>
      <point x="120" y="554"/>
    </contour>
    <contour>
      <point x="-14" y="765" type="line"/>
      <point x="-2" y="873"/>
      <point x="37" y="904"/>
      <point x="83" y="904" type="curve" smooth="yes"/>
      <point x="137" y="904"/>
      <point x="149" y="839"/>
      <point x="149" y="772" type="curve" smooth="yes"/>
      <point x="149" y="765" type="line"/>
    </contour>
  </outline>
</glyph>
<glyph name="uSign_ahom" format="2">
  <unicode hex="11724"/>
  <outline>
    <contour>
      <point x="-7" y="-330" type="curve" smooth="yes"/>
      <point x="42" y="-330"/>
      <point x="140" y="-304"/>
      <point x="140" y="-265" type="curve" smooth="yes"/>
      <point x="140" y="-251"/>
      <point x="128" y="-242"/>
      <point x="111" y="-242" type="curve" smooth="yes"/>
      <point x="106" y="-242"/>
      <point x="101" y="-243"/>
      <point x="97" y="-245" type="curve" smooth="yes"/>
      <point x="60" y="-262"/>
      <point x="28" y="-268"/>
      <point x="-16" y="-268" type="curve" smooth="yes"/>
      <point x="-78" y="-268"/>
      <point x="-120" y="-241"/>
      <point x="-120" y="-130" type="curve" smooth="yes"/>
      <point x="-120" y="-95" type="line" smooth="yes"/>
      <point x="-120" y="-78"/>
      <point x="-143" y="-70"/>
      <point x="-165" y="-70" type="curve" smooth="yes"/>
      <point x="-188" y="-70"/>
      <point x="-210" y="-78"/>
      <point x="-210" y="-95" type="curve" smooth="yes"/>
      <point x="-210" y="-134" type="line" smooth="yes"/>
      <point x="-210" y="-295"/>
      <point x="-99" y="-330"/>
    </contour>
  </outline>
</glyph>
<glyph name="uuSign_ahom" format="2">
  <unicode hex="11725"/>
  <outline>
    <contour>
      <point x="-7" y="-330" type="curve" smooth="yes"/>
      <point x="42" y="-330"/>
      <point x="140" y="-304"/>
      <point x="140" y="-265" type="curve" smooth="yes"/>
      <point x="140" y="-251"/>
      <point x="128" y="-242"/>
      <point x="111" y="-242" type="curve" smooth="yes"/>
      <point x="106" y="-242"/>
      <point x="101" y="-243"/>
      <point x="97" y="-245" type="curve" smooth="yes"/>
      <point x="60" y="-262"/>
      <point x="28" y="-268"/>
      <point x="-16" y="-268" type="curve" smooth="yes"/>
      <point x="-78" y="-268"/>
      <point x="-120" y="-241"/>
      <point x="-120" y="-130" type="curve" smooth="yes"/>
      <point x="-120" y="-95" type="line" smooth="yes"/>
      <point x="-120" y="-78"/>
      <point x="-143" y="-70"/>
      <point x="-165" y="-70" type="curve" smooth="yes"/>
      <point x="-188" y="-70"/>
      <point x="-210" y="-78"/>
      <point x="-210" y="-95" type="curve" smooth="yes"/>
      <point x="-210" y="-134" type="line" smooth="yes"/>
      <point x="-210" y="-295"/>
      <point x="-99" y="-330"/>
    </contour>
    <contour>
      <point x="-13" y="-463" type="curve" smooth="yes"/>
      <point x="39" y="-463"/>
      <point x="89" y="-452"/>
      <point x="127" y="-431" type="curve" smooth="yes"/>
      <point x="171" y="-407"/>
      <point x="205" y="-375"/>
      <point x="205" y="-362" type="curve" smooth="yes"/>
      <point x="205" y="-348"/>
      <point x="184" y="-319"/>
      <point x="167" y="-319" type="curve" smooth="yes"/>
      <point x="161" y="-319"/>
      <point x="151" y="-326"/>
      <point x="137" y="-336" type="curve" smooth="yes"/>
      <point x="106" y="-358"/>
      <point x="54" y="-394"/>
      <point x="-23" y="-394" type="curve" smooth="yes"/>
      <point x="-90" y="-394"/>
      <point x="-144" y="-370"/>
      <point x="-159" y="-360" type="curve" smooth="yes"/>
      <point x="-164" y="-357"/>
      <point x="-168" y="-356"/>
      <point x="-171" y="-356" type="curve" smooth="yes"/>
      <point x="-183" y="-356"/>
      <point x="-192" y="-369"/>
      <point x="-192" y="-381" type="curve" smooth="yes"/>
      <point x="-192" y="-398"/>
      <point x="-111" y="-463"/>
    </contour>
  </outline>
</glyph>
<glyph name="eSign_ahom" format="2">
  <advance width="630"/>
  <unicode hex="11726"/>
  <outline>
    <contour>
      <point x="295" y="-14" type="curve" smooth="yes"/>
      <point x="314" y="-14"/>
      <point x="325" y="-5"/>
      <point x="335" y="23" type="curve" smooth="yes"/>
      <point x="640" y="861" type="line" smooth="yes"/>
      <point x="642" y="866"/>
      <point x="650" y="886"/>
      <point x="650" y="900" type="curve" smooth="yes"/>
      <point x="650" y="921"/>
      <point x="633" y="934"/>
      <point x="613" y="934" type="curve" smooth="yes"/>
      <point x="594" y="934"/>
      <point x="581" y="925"/>
      <point x="571" y="897" type="curve" smooth="yes"/>
      <point x="399" y="423" type="line"/>
      <point x="362" y="503"/>
      <point x="287" y="560"/>
      <point x="193" y="560" type="curve" smooth="yes"/>
      <point x="78" y="560"/>
      <point x="20" y="488"/>
      <point x="20" y="409" type="curve" smooth="yes"/>
      <point x="20" y="345"/>
      <point x="58" y="307"/>
      <point x="110" y="307" type="curve" smooth="yes"/>
      <point x="152" y="307"/>
      <point x="173" y="333"/>
      <point x="173" y="366" type="curve" smooth="yes"/>
      <point x="173" y="399"/>
      <point x="152" y="414"/>
      <point x="118" y="425" type="curve" smooth="yes"/>
      <point x="106" y="429"/>
      <point x="97" y="434"/>
      <point x="97" y="447" type="curve" smooth="yes"/>
      <point x="97" y="466"/>
      <point x="127" y="493"/>
      <point x="188" y="493" type="curve" smooth="yes"/>
      <point x="273" y="493"/>
      <point x="348" y="431"/>
      <point x="372" y="255" type="curve"/>
      <point x="369" y="339" type="line"/>
      <point x="260" y="40" type="line" smooth="yes"/>
      <point x="257" y="33"/>
      <point x="256" y="26"/>
      <point x="256" y="20" type="curve" smooth="yes"/>
      <point x="256" y="-5"/>
      <point x="275" y="-14"/>
    </contour>
  </outline>
</glyph>
<glyph name="awSign_ahom" format="2">
  <unicode hex="11727"/>
  <outline>
    <contour>
      <point x="-2" y="468" type="curve" smooth="yes"/>
      <point x="45" y="468"/>
      <point x="123" y="540"/>
      <point x="123" y="632" type="curve" smooth="yes"/>
      <point x="123" y="657"/>
      <point x="119" y="680"/>
      <point x="115" y="702" type="curve" smooth="yes"/>
      <point x="111" y="724"/>
      <point x="108" y="744"/>
      <point x="108" y="763" type="curve" smooth="yes"/>
      <point x="108" y="816"/>
      <point x="144" y="835"/>
      <point x="187" y="835" type="curve" smooth="yes"/>
      <point x="229" y="835"/>
      <point x="260" y="827"/>
      <point x="281" y="818" type="curve" smooth="yes"/>
      <point x="295" y="812"/>
      <point x="305" y="809"/>
      <point x="314" y="809" type="curve" smooth="yes"/>
      <point x="327" y="809"/>
      <point x="335" y="828"/>
      <point x="335" y="844" type="curve" smooth="yes"/>
      <point x="335" y="873"/>
      <point x="253" y="895"/>
      <point x="193" y="895" type="curve" smooth="yes"/>
      <point x="84" y="895"/>
      <point x="20" y="827"/>
      <point x="20" y="744" type="curve" smooth="yes"/>
      <point x="20" y="723"/>
      <point x="23" y="702"/>
      <point x="28" y="681" type="curve" smooth="yes"/>
      <point x="33" y="660"/>
      <point x="36" y="642"/>
      <point x="36" y="623" type="curve" smooth="yes"/>
      <point x="36" y="586"/>
      <point x="24" y="565"/>
      <point x="-10" y="542" type="curve" smooth="yes"/>
      <point x="-24" y="533"/>
      <point x="-37" y="524"/>
      <point x="-37" y="512" type="curve" smooth="yes"/>
      <point x="-37" y="496"/>
      <point x="-23" y="468"/>
    </contour>
  </outline>
</glyph>
<glyph name="oSign_ahom" format="2">
  <unicode hex="11728"/>
  <outline>
    <contour>
      <point x="-212" y="-345" type="curve" smooth="yes"/>
      <point x="-129" y="-345"/>
      <point x="-50" y="-284"/>
      <point x="-50" y="-180" type="curve" smooth="yes"/>
      <point x="-50" y="-99"/>
      <point x="-95" y="-44"/>
      <point x="-179" y="-44" type="curve" smooth="yes"/>
      <point x="-275" y="-44"/>
      <point x="-334" y="-122"/>
      <point x="-334" y="-207" type="curve" smooth="yes"/>
      <point x="-334" y="-307"/>
      <point x="-273" y="-345"/>
    </contour>
    <contour>
      <point x="-198" y="-300" type="curve" smooth="yes"/>
      <point x="-244" y="-300"/>
      <point x="-259" y="-257"/>
      <point x="-259" y="-195" type="curve" smooth="yes"/>
      <point x="-259" y="-113"/>
      <point x="-227" y="-89"/>
      <point x="-181" y="-89" type="curve" smooth="yes"/>
      <point x="-136" y="-89"/>
      <point x="-125" y="-129"/>
      <point x="-125" y="-178" type="curve" smooth="yes"/>
      <point x="-125" y="-240"/>
      <point x="-138" y="-300"/>
    </contour>
  </outline>
</glyph>
<glyph name="aiSign_ahom" format="2">
  <unicode hex="11729"/>
  <outline>
    <contour>
      <point x="17" y="469" type="curve" smooth="yes"/>
      <point x="32" y="469"/>
      <point x="87" y="505"/>
      <point x="154" y="557" type="curve" smooth="yes"/>
      <point x="229" y="616"/>
      <point x="261" y="676"/>
      <point x="261" y="747" type="curve" smooth="yes"/>
      <point x="261" y="830"/>
      <point x="202" y="888"/>
      <point x="107" y="888" type="curve" smooth="yes"/>
      <point x="5" y="888"/>
      <point x="-40" y="811"/>
      <point x="-40" y="749" type="curve" smooth="yes"/>
      <point x="-40" y="702"/>
      <point x="-16" y="665"/>
      <point x="36" y="665" type="curve" smooth="yes"/>
      <point x="71" y="665"/>
      <point x="98" y="684"/>
      <point x="98" y="710" type="curve" smooth="yes"/>
      <point x="98" y="742"/>
      <point x="84" y="757"/>
      <point x="49" y="765" type="curve" smooth="yes"/>
      <point x="37" y="768"/>
      <point x="31" y="772"/>
      <point x="31" y="783" type="curve" smooth="yes"/>
      <point x="31" y="804"/>
      <point x="55" y="824"/>
      <point x="103" y="824" type="curve" smooth="yes"/>
      <point x="147" y="824"/>
      <point x="176" y="795"/>
      <point x="176" y="739" type="curve" smooth="yes"/>
      <point x="176" y="677"/>
      <point x="120" y="619"/>
      <point x="41" y="570" type="curve" smooth="yes"/>
      <point x="7" y="549"/>
      <point x="-20" y="531"/>
      <point x="-20" y="511" type="curve" smooth="yes"/>
      <point x="-20" y="495"/>
      <point x="1" y="469"/>
    </contour>
  </outline>
</glyph>
<glyph name="amSign_ahom" format="2">
  <unicode hex="1172A"/>
  <outline>
    <contour>
      <point x="-181" y="630" type="curve" smooth="yes"/>
      <point x="-109" y="630"/>
      <point x="-30" y="678"/>
      <point x="-30" y="770" type="curve" smooth="yes"/>
      <point x="-30" y="851"/>
      <point x="-85" y="906"/>
      <point x="-169" y="906" type="curve" smooth="yes"/>
      <point x="-265" y="906"/>
      <point x="-324" y="843"/>
      <point x="-324" y="766" type="curve" smooth="yes"/>
      <point x="-324" y="671"/>
      <point x="-253" y="630"/>
    </contour>
    <contour>
      <point x="-178" y="675" type="curve" smooth="yes"/>
      <point x="-224" y="675"/>
      <point x="-249" y="708"/>
      <point x="-249" y="770" type="curve" smooth="yes"/>
      <point x="-249" y="827"/>
      <point x="-217" y="861"/>
      <point x="-171" y="861" type="curve" smooth="yes"/>
      <point x="-126" y="861"/>
      <point x="-105" y="821"/>
      <point x="-105" y="772" type="curve" smooth="yes"/>
      <point x="-105" y="732"/>
      <point x="-118" y="675"/>
    </contour>
  </outline>
</glyph>
<glyph name="virama_ahom" format="2">
  <unicode hex="1172B"/>
  <outline>
    <contour>
      <point x="-72" y="853" type="curve" smooth="yes"/>
      <point x="-185" y="853"/>
      <point x="-294" y="781"/>
      <point x="-294" y="673" type="curve" smooth="yes"/>
      <point x="-294" y="641"/>
      <point x="-279" y="634"/>
      <point x="-266" y="634" type="curve" smooth="yes"/>
      <point x="-242" y="634"/>
      <point x="-223" y="666"/>
      <point x="-195" y="706" type="curve" smooth="yes"/>
      <point x="-166" y="747"/>
      <point x="-119" y="791"/>
      <point x="-55" y="791" type="curve" smooth="yes"/>
      <point x="-33" y="791"/>
      <point x="-6" y="788"/>
      <point x="18" y="776" type="curve" smooth="yes"/>
      <point x="32" y="769"/>
      <point x="41" y="765"/>
      <point x="49" y="765" type="curve" smooth="yes"/>
      <point x="63" y="765"/>
      <point x="75" y="775"/>
      <point x="75" y="790" type="curve" smooth="yes"/>
      <point x="75" y="828"/>
      <point x="-2" y="853"/>
    </contour>
  </outline>
</glyph>
<glyph name="zero_ahom" format="2">
  <advance width="623"/>
  <unicode hex="11730"/>
  <outline>
    <contour>
      <point x="255" y="-12" type="curve" smooth="yes"/>
      <point x="405" y="-12"/>
      <point x="543" y="161"/>
      <point x="543" y="344" type="curve" smooth="yes"/>
      <point x="543" y="463"/>
      <point x="489" y="560"/>
      <point x="368" y="560" type="curve" smooth="yes"/>
      <point x="221" y="560"/>
      <point x="80" y="390"/>
      <point x="80" y="204" type="curve" smooth="yes"/>
      <point x="80" y="85"/>
      <point x="134" y="-12"/>
    </contour>
    <contour>
      <point x="284" y="65" type="curve" smooth="yes"/>
      <point x="214" y="65"/>
      <point x="174" y="122"/>
      <point x="174" y="224" type="curve" smooth="yes"/>
      <point x="174" y="378"/>
      <point x="217" y="480"/>
      <point x="332" y="480" type="curve" smooth="yes"/>
      <point x="409" y="480"/>
      <point x="449" y="426"/>
      <point x="449" y="324" type="curve" smooth="yes"/>
      <point x="449" y="186"/>
      <point x="411" y="65"/>
    </contour>
  </outline>
</glyph>
<glyph name="one_ahom" format="2">
  <advance width="682"/>
  <unicode hex="11731"/>
  <outline>
    <contour>
      <point x="609" y="-45" type="curve" smooth="yes"/>
      <point x="644" y="-45"/>
      <point x="662" y="-8"/>
      <point x="662" y="16" type="curve" smooth="yes"/>
      <point x="662" y="28"/>
      <point x="657" y="38"/>
      <point x="646" y="38" type="curve" smooth="yes"/>
      <point x="604" y="39"/>
      <point x="598" y="65"/>
      <point x="598" y="132" type="curve" smooth="yes"/>
      <point x="598" y="276" type="line" smooth="yes"/>
      <point x="598" y="328"/>
      <point x="554" y="431"/>
      <point x="447" y="431" type="curve" smooth="yes"/>
      <point x="412" y="431"/>
      <point x="394" y="394"/>
      <point x="394" y="370" type="curve" smooth="yes"/>
      <point x="394" y="358"/>
      <point x="399" y="348"/>
      <point x="410" y="348" type="curve" smooth="yes"/>
      <point x="427" y="348" type="line" smooth="yes"/>
      <point x="502" y="348"/>
      <point x="508" y="268"/>
      <point x="508" y="254" type="curve" smooth="yes"/>
      <point x="508" y="86" type="line" smooth="yes"/>
      <point x="508" y="37"/>
      <point x="519" y="-45"/>
    </contour>
    <contour>
      <point x="61" y="43" type="curve" smooth="yes"/>
      <point x="135" y="43"/>
      <point x="231" y="124"/>
      <point x="231" y="202" type="curve" smooth="yes"/>
      <point x="231" y="266"/>
      <point x="194" y="350"/>
      <point x="117" y="350" type="curve" smooth="yes"/>
      <point x="96" y="350"/>
      <point x="71" y="313"/>
      <point x="71" y="289" type="curve" smooth="yes"/>
      <point x="71" y="277"/>
      <point x="77" y="271"/>
      <point x="87" y="267" type="curve" smooth="yes"/>
      <point x="122" y="254"/>
      <point x="147" y="226"/>
      <point x="147" y="199" type="curve" smooth="yes"/>
      <point x="147" y="156"/>
      <point x="106" y="134"/>
      <point x="70" y="118" type="curve" smooth="yes"/>
      <point x="43" y="106"/>
      <point x="20" y="94"/>
      <point x="20" y="77" type="curve" smooth="yes"/>
      <point x="20" y="44"/>
      <point x="46" y="43"/>
    </contour>
    <contour>
      <point x="318" y="5" type="curve" smooth="yes"/>
      <point x="345" y="5"/>
      <point x="356" y="19"/>
      <point x="366" y="33" type="curve" smooth="yes"/>
      <point x="392" y="69"/>
      <point x="439" y="135"/>
      <point x="439" y="192" type="curve" smooth="yes"/>
      <point x="439" y="241"/>
      <point x="400" y="340"/>
      <point x="315" y="340" type="curve" smooth="yes"/>
      <point x="294" y="340"/>
      <point x="269" y="303"/>
      <point x="269" y="279" type="curve" smooth="yes"/>
      <point x="269" y="267"/>
      <point x="275" y="261"/>
      <point x="285" y="257" type="curve" smooth="yes"/>
      <point x="341" y="236"/>
      <point x="349" y="195"/>
      <point x="349" y="170" type="curve" smooth="yes"/>
      <point x="349" y="144"/>
      <point x="334" y="117"/>
      <point x="318" y="91" type="curve" smooth="yes"/>
      <point x="304" y="69"/>
      <point x="292" y="48"/>
      <point x="292" y="30" type="curve" smooth="yes"/>
      <point x="292" y="11"/>
      <point x="307" y="5"/>
    </contour>
    <contour>
      <point x="177" y="403" type="curve" smooth="yes"/>
      <point x="219" y="403"/>
      <point x="288" y="432"/>
      <point x="320" y="451" type="curve" smooth="yes"/>
      <point x="403" y="501"/>
      <point x="480" y="578"/>
      <point x="480" y="661" type="curve" smooth="yes"/>
      <point x="480" y="696"/>
      <point x="465" y="706"/>
      <point x="450" y="706" type="curve" smooth="yes"/>
      <point x="443" y="706"/>
      <point x="429" y="700"/>
      <point x="420" y="676" type="curve" smooth="yes"/>
      <point x="388" y="591"/>
      <point x="280" y="506"/>
      <point x="179" y="495" type="curve" smooth="yes"/>
      <point x="158" y="493"/>
      <point x="149" y="483"/>
      <point x="149" y="469" type="curve" smooth="yes"/>
      <point x="149" y="453"/>
      <point x="154" y="403"/>
    </contour>
  </outline>
</glyph>
<glyph name="four_ahom" format="2">
  <advance width="1256"/>
  <unicode hex="11734"/>
  <outline>
    <contour>
      <point x="1058" y="490" type="curve" smooth="yes"/>
      <point x="1154" y="490"/>
      <point x="1256" y="599"/>
      <point x="1256" y="770" type="curve" smooth="yes"/>
      <point x="1256" y="880"/>
      <point x="1211" y="968"/>
      <point x="1123" y="968" type="curve" smooth="yes"/>
      <point x="998" y="968"/>
      <point x="925" y="807"/>
      <point x="925" y="701" type="curve" smooth="yes"/>
      <point x="925" y="556"/>
      <point x="982" y="490"/>
    </contour>
    <contour>
      <point x="1078" y="554" type="curve" smooth="yes"/>
      <point x="1033" y="554"/>
      <point x="1007" y="607"/>
      <point x="1007" y="691" type="curve" smooth="yes"/>
      <point x="1007" y="698"/>
      <point x="1007" y="705"/>
      <point x="1008" y="712" type="curve"/>
      <point x="1172" y="712" type="line"/>
      <point x="1167" y="623"/>
      <point x="1145" y="554"/>
    </contour>
    <contour>
      <point x="1011" y="765" type="line"/>
      <point x="1023" y="873"/>
      <point x="1062" y="904"/>
      <point x="1108" y="904" type="curve" smooth="yes"/>
      <point x="1162" y="904"/>
      <point x="1174" y="839"/>
      <point x="1174" y="772" type="curve" smooth="yes"/>
      <point x="1174" y="765" type="line"/>
    </contour>
    <component base="sa_ahom"/>
  </outline>
</glyph>
<glyph name="six_ahom" format="2">
  <advance width="848"/>
  <unicode hex="11736"/>
  <outline>
    <contour>
      <point x="435" y="-222" type="curve" smooth="yes"/>
      <point x="600" y="-222"/>
      <point x="743" y="-128"/>
      <point x="743" y="59" type="curve" smooth="yes"/>
      <point x="743" y="172"/>
      <point x="694" y="207"/>
      <point x="637" y="207" type="curve" smooth="yes"/>
      <point x="591" y="207"/>
      <point x="540" y="183"/>
      <point x="507" y="166" type="curve" smooth="yes"/>
      <point x="490" y="157"/>
      <point x="478" y="152"/>
      <point x="473" y="152" type="curve" smooth="yes"/>
      <point x="464" y="152"/>
      <point x="454" y="160"/>
      <point x="454" y="183" type="curve" smooth="yes"/>
      <point x="454" y="197" type="line"/>
      <point x="562" y="381"/>
      <point x="635" y="381"/>
      <point x="654" y="381" type="curve" smooth="yes"/>
      <point x="666" y="381"/>
      <point x="679" y="378"/>
      <point x="692" y="375" type="curve" smooth="yes"/>
      <point x="703" y="372"/>
      <point x="713" y="370"/>
      <point x="722" y="370" type="curve" smooth="yes"/>
      <point x="748" y="370"/>
      <point x="784" y="386"/>
      <point x="784" y="431" type="curve" smooth="yes"/>
      <point x="784" y="462"/>
      <point x="758" y="477"/>
      <point x="722" y="477" type="curve" smooth="yes"/>
      <point x="670" y="477"/>
      <point x="575" y="445"/>
      <point x="454" y="285" type="curve"/>
      <point x="454" y="315" type="line" smooth="yes"/>
      <point x="454" y="367"/>
      <point x="450" y="470"/>
      <point x="343" y="470" type="curve" smooth="yes"/>
      <point x="308" y="470"/>
      <point x="290" y="433"/>
      <point x="290" y="409" type="curve" smooth="yes"/>
      <point x="290" y="397"/>
      <point x="295" y="387"/>
      <point x="306" y="387" type="curve" smooth="yes"/>
      <point x="313" y="387" type="line" smooth="yes"/>
      <point x="361" y="387"/>
      <point x="364" y="339"/>
      <point x="364" y="293" type="curve" smooth="yes"/>
      <point x="364" y="152" type="line" smooth="yes"/>
      <point x="364" y="93"/>
      <point x="392" y="80"/>
      <point x="417" y="80" type="curve" smooth="yes"/>
      <point x="450" y="80"/>
      <point x="475" y="93"/>
      <point x="502" y="107" type="curve" smooth="yes"/>
      <point x="528" y="120"/>
      <point x="554" y="133"/>
      <point x="589" y="133" type="curve" smooth="yes"/>
      <point x="619" y="133"/>
      <point x="649" y="116"/>
      <point x="649" y="47" type="curve" smooth="yes"/>
      <point x="649" y="-100"/>
      <point x="516" y="-145"/>
      <point x="447" y="-145" type="curve" smooth="yes"/>
      <point x="245" y="-145"/>
      <point x="174" y="27"/>
      <point x="174" y="262" type="curve" smooth="yes"/>
      <point x="174" y="606"/>
      <point x="361" y="733"/>
      <point x="570" y="733" type="curve" smooth="yes"/>
      <point x="685" y="733"/>
      <point x="749" y="713"/>
      <point x="784" y="701" type="curve" smooth="yes"/>
      <point x="798" y="696"/>
      <point x="810" y="693"/>
      <point x="819" y="693" type="curve" smooth="yes"/>
      <point x="834" y="693"/>
      <point x="848" y="702"/>
      <point x="848" y="720" type="curve" smooth="yes"/>
      <point x="848" y="736"/>
      <point x="841" y="745"/>
      <point x="826" y="752" type="curve" smooth="yes"/>
      <point x="768" y="778"/>
      <point x="684" y="800"/>
      <point x="583" y="800" type="curve" smooth="yes"/>
      <point x="281" y="800"/>
      <point x="80" y="552"/>
      <point x="80" y="257" type="curve" smooth="yes"/>
      <point x="80" y="-20"/>
      <point x="218" y="-222"/>
    </contour>
  </outline>
</glyph>
<glyph name="seven_ahom" format="2">
  <advance width="996"/>
  <unicode hex="11737"/>
  <outline>
    <contour>
      <point x="916" y="-150" type="curve" smooth="yes"/>
      <point x="964" y="-150"/>
      <point x="976" y="-132"/>
      <point x="976" y="-120" type="curve" smooth="yes"/>
      <point x="976" y="-109"/>
      <point x="960" y="-97"/>
      <point x="923" y="-88" type="curve" smooth="yes"/>
      <point x="880" y="-77"/>
      <point x="837" y="-51"/>
      <point x="837" y="60" type="curve" smooth="yes"/>
      <point x="837" y="240" type="line" smooth="yes"/>
      <point x="837" y="391"/>
      <point x="741" y="468"/>
      <point x="619" y="468" type="curve" smooth="yes"/>
      <point x="611" y="468"/>
      <point x="603" y="467"/>
      <point x="595" y="466" type="curve"/>
      <point x="557" y="527"/>
      <point x="491" y="560"/>
      <point x="411" y="560" type="curve" smooth="yes"/>
      <point x="260" y="560"/>
      <point x="122" y="420"/>
      <point x="38" y="260" type="curve" smooth="yes"/>
      <point x="33" y="250"/>
      <point x="30" y="241"/>
      <point x="30" y="235" type="curve" smooth="yes"/>
      <point x="30" y="224"/>
      <point x="45" y="210"/>
      <point x="63" y="210" type="curve" smooth="yes"/>
      <point x="73" y="210"/>
      <point x="84" y="215"/>
      <point x="91" y="228" type="curve" smooth="yes"/>
      <point x="189" y="414"/>
      <point x="320" y="478"/>
      <point x="397" y="478" type="curve" smooth="yes"/>
      <point x="440" y="478"/>
      <point x="478" y="467"/>
      <point x="504" y="439" type="curve"/>
      <point x="405" y="393"/>
      <point x="314" y="296"/>
      <point x="314" y="194" type="curve" smooth="yes"/>
      <point x="314" y="124"/>
      <point x="358" y="83"/>
      <point x="429" y="83" type="curve" smooth="yes"/>
      <point x="527" y="83"/>
      <point x="629" y="167"/>
      <point x="629" y="332" type="curve" smooth="yes"/>
      <point x="629" y="351"/>
      <point x="628" y="369"/>
      <point x="625" y="385" type="curve"/>
      <point x="706" y="380"/>
      <point x="747" y="341"/>
      <point x="747" y="237" type="curve" smooth="yes"/>
      <point x="747" y="56" type="line" smooth="yes"/>
      <point x="747" y="-105"/>
      <point x="858" y="-150"/>
    </contour>
    <contour>
      <point x="422" y="142" type="curve" smooth="yes"/>
      <point x="404" y="142"/>
      <point x="372" y="150"/>
      <point x="372" y="189" type="curve" smooth="yes"/>
      <point x="372" y="279"/>
      <point x="452" y="347"/>
      <point x="535" y="374" type="curve"/>
      <point x="537" y="360"/>
      <point x="539" y="345"/>
      <point x="539" y="329" type="curve" smooth="yes"/>
      <point x="539" y="168"/>
      <point x="461" y="142"/>
    </contour>
  </outline>
</glyph>
<glyph name="eight_ahom" format="2">
  <advance width="1296"/>
  <unicode hex="11738"/>
  <outline>
    <contour>
      <point x="1216" y="-150" type="curve" smooth="yes"/>
      <point x="1264" y="-150"/>
      <point x="1276" y="-132"/>
      <point x="1276" y="-120" type="curve" smooth="yes"/>
      <point x="1276" y="-109"/>
      <point x="1260" y="-97"/>
      <point x="1223" y="-88" type="curve" smooth="yes"/>
      <point x="1180" y="-77"/>
      <point x="1137" y="-51"/>
      <point x="1137" y="60" type="curve" smooth="yes"/>
      <point x="1137" y="240" type="line" smooth="yes"/>
      <point x="1137" y="388"/>
      <point x="1046" y="468"/>
      <point x="919" y="468" type="curve" smooth="yes"/>
      <point x="909" y="468"/>
      <point x="898" y="467"/>
      <point x="888" y="466" type="curve"/>
      <point x="854" y="527"/>
      <point x="792" y="560"/>
      <point x="711" y="560" type="curve" smooth="yes"/>
      <point x="661" y="560"/>
      <point x="605" y="543"/>
      <point x="550" y="513" type="curve"/>
      <point x="515" y="544"/>
      <point x="467" y="560"/>
      <point x="411" y="560" type="curve" smooth="yes"/>
      <point x="260" y="560"/>
      <point x="125" y="420"/>
      <point x="38" y="260" type="curve" smooth="yes"/>
      <point x="32" y="250"/>
      <point x="30" y="241"/>
      <point x="30" y="235" type="curve" smooth="yes"/>
      <point x="30" y="224"/>
      <point x="45" y="210"/>
      <point x="63" y="210" type="curve" smooth="yes"/>
      <point x="73" y="210"/>
      <point x="84" y="215"/>
      <point x="91" y="228" type="curve" smooth="yes"/>
      <point x="189" y="414"/>
      <point x="320" y="478"/>
      <point x="397" y="478" type="curve" smooth="yes"/>
      <point x="426" y="478"/>
      <point x="452" y="473"/>
      <point x="473" y="461" type="curve"/>
      <point x="395" y="395"/>
      <point x="334" y="311"/>
      <point x="334" y="203" type="curve" smooth="yes"/>
      <point x="334" y="132"/>
      <point x="373" y="83"/>
      <point x="445" y="83" type="curve" smooth="yes"/>
      <point x="540" y="83"/>
      <point x="619" y="167"/>
      <point x="619" y="332" type="curve" smooth="yes"/>
      <point x="619" y="380"/>
      <point x="610" y="421"/>
      <point x="594" y="455" type="curve"/>
      <point x="630" y="470"/>
      <point x="663" y="478"/>
      <point x="685" y="478" type="curve" smooth="yes"/>
      <point x="742" y="478"/>
      <point x="780" y="466"/>
      <point x="803" y="437" type="curve"/>
      <point x="712" y="390"/>
      <point x="634" y="301"/>
      <point x="634" y="200" type="curve" smooth="yes"/>
      <point x="634" y="127"/>
      <point x="674" y="83"/>
      <point x="745" y="83" type="curve" smooth="yes"/>
      <point x="839" y="83"/>
      <point x="919" y="167"/>
      <point x="919" y="332" type="curve" smooth="yes"/>
      <point x="919" y="351"/>
      <point x="917" y="369"/>
      <point x="915" y="386" type="curve"/>
      <point x="1002" y="383"/>
      <point x="1047" y="346"/>
      <point x="1047" y="237" type="curve" smooth="yes"/>
      <point x="1047" y="56" type="line" smooth="yes"/>
      <point x="1047" y="-105"/>
      <point x="1158" y="-150"/>
    </contour>
    <contour>
      <point x="444" y="142" type="curve" smooth="yes"/>
      <point x="413" y="142"/>
      <point x="392" y="162"/>
      <point x="392" y="203" type="curve" smooth="yes"/>
      <point x="392" y="291"/>
      <point x="449" y="363"/>
      <point x="515" y="411" type="curve"/>
      <point x="524" y="390"/>
      <point x="529" y="363"/>
      <point x="529" y="329" type="curve" smooth="yes"/>
      <point x="529" y="184"/>
      <point x="487" y="142"/>
    </contour>
    <contour>
      <point x="742" y="142" type="curve" smooth="yes"/>
      <point x="711" y="142"/>
      <point x="692" y="162"/>
      <point x="692" y="200" type="curve" smooth="yes"/>
      <point x="692" y="279"/>
      <point x="756" y="341"/>
      <point x="826" y="370" type="curve"/>
      <point x="828" y="357"/>
      <point x="829" y="344"/>
      <point x="829" y="329" type="curve" smooth="yes"/>
      <point x="829" y="185"/>
      <point x="787" y="142"/>
    </contour>
  </outline>
</glyph>
<glyph name="nine_ahom" format="2">
  <advance width="942"/>
  <unicode hex="11739"/>
  <outline>
    <contour>
      <point x="547" y="-222" type="curve" smooth="yes"/>
      <point x="714" y="-222"/>
      <point x="813" y="-159"/>
      <point x="846" y="-131" type="curve" smooth="yes"/>
      <point x="858" y="-121"/>
      <point x="863" y="-113"/>
      <point x="863" y="-101" type="curve" smooth="yes"/>
      <point x="863" y="-85"/>
      <point x="850" y="-70"/>
      <point x="834" y="-70" type="curve" smooth="yes"/>
      <point x="821" y="-70"/>
      <point x="806" y="-81"/>
      <point x="791" y="-92" type="curve" smooth="yes"/>
      <point x="749" y="-122"/>
      <point x="662" y="-155"/>
      <point x="560" y="-155" type="curve" smooth="yes"/>
      <point x="274" y="-155"/>
      <point x="174" y="27"/>
      <point x="174" y="262" type="curve" smooth="yes"/>
      <point x="174" y="606"/>
      <point x="321" y="733"/>
      <point x="517" y="733" type="curve" smooth="yes"/>
      <point x="689" y="733"/>
      <point x="750" y="629"/>
      <point x="750" y="518" type="curve" smooth="yes"/>
      <point x="750" y="373"/>
      <point x="648" y="312"/>
      <point x="484" y="311" type="curve"/>
      <point x="484" y="315" type="line" smooth="yes"/>
      <point x="484" y="367"/>
      <point x="480" y="470"/>
      <point x="373" y="470" type="curve" smooth="yes"/>
      <point x="342" y="470"/>
      <point x="320" y="446"/>
      <point x="320" y="409" type="curve" smooth="yes"/>
      <point x="320" y="397"/>
      <point x="325" y="387"/>
      <point x="336" y="387" type="curve" smooth="yes"/>
      <point x="343" y="387" type="line" smooth="yes"/>
      <point x="391" y="387"/>
      <point x="394" y="339"/>
      <point x="394" y="293" type="curve" smooth="yes"/>
      <point x="394" y="135" type="line" smooth="yes"/>
      <point x="394" y="48"/>
      <point x="444" y="-14"/>
      <point x="539" y="-14" type="curve" smooth="yes"/>
      <point x="710" y="-14"/>
      <point x="793" y="92"/>
      <point x="814" y="122" type="curve" smooth="yes"/>
      <point x="817" y="126"/>
      <point x="818" y="130"/>
      <point x="818" y="134" type="curve" smooth="yes"/>
      <point x="818" y="148"/>
      <point x="803" y="159"/>
      <point x="791" y="159" type="curve" smooth="yes"/>
      <point x="785" y="159"/>
      <point x="779" y="157"/>
      <point x="775" y="151" type="curve" smooth="yes"/>
      <point x="722" y="75"/>
      <point x="615" y="38"/>
      <point x="562" y="38" type="curve" smooth="yes"/>
      <point x="499" y="38"/>
      <point x="484" y="79"/>
      <point x="484" y="126" type="curve" smooth="yes"/>
      <point x="484" y="247" type="line"/>
      <point x="698" y="253"/>
      <point x="844" y="336"/>
      <point x="844" y="518" type="curve" smooth="yes"/>
      <point x="844" y="675"/>
      <point x="719" y="800"/>
      <point x="527" y="800" type="curve" smooth="yes"/>
      <point x="261" y="800"/>
      <point x="80" y="563"/>
      <point x="80" y="268" type="curve" smooth="yes"/>
      <point x="80" y="-9"/>
      <point x="274" y="-222"/>
    </contour>
  </outline>
</glyph>
<glyph name="smallSectionSign_ahom" format="2">
  <advance width="334"/>
  <unicode hex="1173C"/>
  <outline>
    <contour>
      <point x="170" y="-10" type="curve" smooth="yes"/>
      <point x="194" y="-10"/>
      <point x="214" y="-2"/>
      <point x="214" y="15" type="curve" smooth="yes"/>
      <point x="214" y="385" type="line" smooth="yes"/>
      <point x="214" y="460"/>
      <point x="201" y="560"/>
      <point x="148" y="560" type="curve" smooth="yes"/>
      <point x="115" y="560"/>
      <point x="60" y="513"/>
      <point x="60" y="489" type="curve" smooth="yes"/>
      <point x="60" y="475"/>
      <point x="72" y="463"/>
      <point x="84" y="453" type="curve" smooth="yes"/>
      <point x="89" y="449"/>
      <point x="94" y="444"/>
      <point x="100" y="438" type="curve" smooth="yes"/>
      <point x="113" y="424"/>
      <point x="124" y="405"/>
      <point x="124" y="345" type="curve" smooth="yes"/>
      <point x="124" y="15" type="line" smooth="yes"/>
      <point x="124" y="-4"/>
      <point x="149" y="-10"/>
    </contour>
  </outline>
</glyph>
<glyph name="rulaiSign_ahom" format="2">
  <advance width="938"/>
  <unicode hex="1173E"/>
  <outline>
    <contour>
      <point x="441" y="-175" type="curve" smooth="yes"/>
      <point x="618" y="-175"/>
      <point x="858" y="57"/>
      <point x="858" y="364" type="curve" smooth="yes"/>
      <point x="858" y="487"/>
      <point x="785" y="560"/>
      <point x="679" y="560" type="curve" smooth="yes"/>
      <point x="580" y="560"/>
      <point x="498" y="481"/>
      <point x="454" y="390" type="curve"/>
      <point x="436" y="480"/>
      <point x="373" y="560"/>
      <point x="301" y="560" type="curve" smooth="yes"/>
      <point x="280" y="560"/>
      <point x="255" y="523"/>
      <point x="255" y="499" type="curve" smooth="yes"/>
      <point x="255" y="487"/>
      <point x="261" y="481"/>
      <point x="271" y="477" type="curve" smooth="yes"/>
      <point x="332" y="453"/>
      <point x="369" y="411"/>
      <point x="369" y="336" type="curve" smooth="yes"/>
      <point x="369" y="195" type="line" smooth="yes"/>
      <point x="369" y="91"/>
      <point x="396" y="-14"/>
      <point x="535" y="-14" type="curve" smooth="yes"/>
      <point x="578" y="-14"/>
      <point x="643" y="5"/>
      <point x="696" y="49" type="curve"/>
      <point x="701" y="66" type="line"/>
      <point x="627" y="-52"/>
      <point x="538" y="-98"/>
      <point x="436" y="-98" type="curve" smooth="yes"/>
      <point x="248" y="-98"/>
      <point x="174" y="97"/>
      <point x="174" y="311" type="curve" smooth="yes"/>
      <point x="174" y="676"/>
      <point x="341" y="783"/>
      <point x="550" y="783" type="curve" smooth="yes"/>
      <point x="678" y="783"/>
      <point x="748" y="763"/>
      <point x="785" y="750" type="curve" smooth="yes"/>
      <point x="799" y="745"/>
      <point x="810" y="743"/>
      <point x="820" y="743" type="curve" smooth="yes"/>
      <point x="833" y="743"/>
      <point x="848" y="752"/>
      <point x="848" y="770" type="curve" smooth="yes"/>
      <point x="848" y="786"/>
      <point x="839" y="796"/>
      <point x="824" y="803" type="curve" smooth="yes"/>
      <point x="766" y="829"/>
      <point x="665" y="850"/>
      <point x="552" y="850" type="curve" smooth="yes"/>
      <point x="302" y="850"/>
      <point x="80" y="700"/>
      <point x="80" y="311" type="curve" smooth="yes"/>
      <point x="80" y="50"/>
      <point x="183" y="-175"/>
    </contour>
    <contour>
      <point x="544" y="48" type="curve" smooth="yes"/>
      <point x="480" y="48"/>
      <point x="459" y="82"/>
      <point x="459" y="175" type="curve" smooth="yes"/>
      <point x="459" y="268" type="line"/>
      <point x="500" y="462"/>
      <point x="620" y="480"/>
      <point x="651" y="480" type="curve" smooth="yes"/>
      <point x="732" y="480"/>
      <point x="764" y="405"/>
      <point x="764" y="352" type="curve" smooth="yes"/>
      <point x="764" y="181"/>
      <point x="670" y="48"/>
    </contour>
  </outline>
</glyph>
<glyph name="viSymbol_ahom" format="2">
  <advance width="917"/>
  <unicode hex="1173F"/>
  <outline>
    <contour>
      <point x="518" y="-363" type="curve" smooth="yes"/>
      <point x="532" y="-363"/>
      <point x="552" y="-352"/>
      <point x="552" y="-325" type="curve" smooth="yes"/>
      <point x="552" y="-319"/>
      <point x="550" y="-315"/>
      <point x="547" y="-312" type="curve" smooth="yes"/>
      <point x="546" y="-311"/>
      <point x="540" y="-309"/>
      <point x="532" y="-307" type="curve" smooth="yes"/>
      <point x="492" y="-297"/>
      <point x="394" y="-263"/>
      <point x="394" y="-200" type="curve" smooth="yes"/>
      <point x="394" y="-159"/>
      <point x="420" y="-134"/>
      <point x="477" y="-96" type="curve" smooth="yes"/>
      <point x="528" y="-62"/>
      <point x="560" y="-29"/>
      <point x="566" y="0" type="curve"/>
      <point x="572" y="-6"/>
      <point x="574" y="-17"/>
      <point x="574" y="-24" type="curve" smooth="yes"/>
      <point x="574" y="-43"/>
      <point x="570" y="-63"/>
      <point x="566" y="-82" type="curve" smooth="yes"/>
      <point x="562" y="-103"/>
      <point x="558" y="-124"/>
      <point x="558" y="-145" type="curve" smooth="yes"/>
      <point x="558" y="-240"/>
      <point x="620" y="-296"/>
      <point x="731" y="-296" type="curve" smooth="yes"/>
      <point x="791" y="-296"/>
      <point x="873" y="-274"/>
      <point x="873" y="-252" type="curve" smooth="yes"/>
      <point x="873" y="-232"/>
      <point x="865" y="-210"/>
      <point x="852" y="-210" type="curve" smooth="yes"/>
      <point x="844" y="-210"/>
      <point x="834" y="-213"/>
      <point x="821" y="-218" type="curve" smooth="yes"/>
      <point x="799" y="-226"/>
      <point x="769" y="-236"/>
      <point x="725" y="-236" type="curve" smooth="yes"/>
      <point x="682" y="-236"/>
      <point x="636" y="-212"/>
      <point x="636" y="-159" type="curve" smooth="yes"/>
      <point x="636" y="-140"/>
      <point x="638" y="-119"/>
      <point x="641" y="-98" type="curve" smooth="yes"/>
      <point x="644" y="-76"/>
      <point x="646" y="-53"/>
      <point x="646" y="-32" type="curve" smooth="yes"/>
      <point x="646" y="15"/>
      <point x="627" y="53"/>
      <point x="604" y="80" type="curve"/>
      <point x="604" y="438" type="line" smooth="yes"/>
      <point x="604" y="478"/>
      <point x="599" y="495"/>
      <point x="580" y="520" type="curve"/>
      <point x="582" y="507" type="line"/>
      <point x="616" y="525"/>
      <point x="646" y="570"/>
      <point x="646" y="631" type="curve" smooth="yes"/>
      <point x="646" y="653"/>
      <point x="644" y="676"/>
      <point x="641" y="698" type="curve" smooth="yes"/>
      <point x="638" y="719"/>
      <point x="636" y="740"/>
      <point x="636" y="758" type="curve" smooth="yes"/>
      <point x="636" y="805"/>
      <point x="668" y="835"/>
      <point x="731" y="835" type="curve" smooth="yes"/>
      <point x="775" y="835"/>
      <point x="800" y="827"/>
      <point x="822" y="818" type="curve" smooth="yes"/>
      <point x="834" y="813"/>
      <point x="844" y="809"/>
      <point x="852" y="809" type="curve" smooth="yes"/>
      <point x="865" y="809"/>
      <point x="873" y="824"/>
      <point x="873" y="839" type="curve" smooth="yes"/>
      <point x="873" y="863"/>
      <point x="822" y="895"/>
      <point x="731" y="895" type="curve" smooth="yes"/>
      <point x="633" y="895"/>
      <point x="558" y="844"/>
      <point x="558" y="744" type="curve" smooth="yes"/>
      <point x="558" y="722"/>
      <point x="562" y="701"/>
      <point x="566" y="680" type="curve" smooth="yes"/>
      <point x="570" y="661"/>
      <point x="574" y="642"/>
      <point x="574" y="623" type="curve" smooth="yes"/>
      <point x="574" y="580"/>
      <point x="553" y="553"/>
      <point x="514" y="546" type="curve"/>
      <point x="527" y="532" type="line"/>
      <point x="528" y="539"/>
      <point x="528" y="545"/>
      <point x="528" y="551" type="curve" smooth="yes"/>
      <point x="528" y="617"/>
      <point x="494" y="655"/>
      <point x="450" y="693" type="curve" smooth="yes"/>
      <point x="406" y="731"/>
      <point x="384" y="755"/>
      <point x="384" y="792" type="curve" smooth="yes"/>
      <point x="384" y="855"/>
      <point x="460" y="883"/>
      <point x="506" y="900" type="curve" smooth="yes"/>
      <point x="530" y="909"/>
      <point x="542" y="914"/>
      <point x="542" y="930" type="curve" smooth="yes"/>
      <point x="542" y="953"/>
      <point x="522" y="962"/>
      <point x="508" y="962" type="curve" smooth="yes"/>
      <point x="503" y="962"/>
      <point x="499" y="962"/>
      <point x="494" y="961" type="curve" smooth="yes"/>
      <point x="382" y="939"/>
      <point x="306" y="867"/>
      <point x="306" y="790" type="curve" smooth="yes"/>
      <point x="306" y="722"/>
      <point x="351" y="680"/>
      <point x="393" y="642" type="curve" smooth="yes"/>
      <point x="437" y="602"/>
      <point x="458" y="573"/>
      <point x="458" y="536" type="curve" smooth="yes"/>
      <point x="458" y="498"/>
      <point x="437" y="461"/>
      <point x="405" y="411" type="curve" smooth="yes"/>
      <point x="209" y="103" type="line"/>
      <point x="224" y="98" type="line"/>
      <point x="224" y="314" type="line" smooth="yes"/>
      <point x="224" y="472"/>
      <point x="148" y="560"/>
      <point x="66" y="560" type="curve" smooth="yes"/>
      <point x="45" y="560"/>
      <point x="23" y="533"/>
      <point x="23" y="509" type="curve" smooth="yes"/>
      <point x="23" y="490"/>
      <point x="32" y="482"/>
      <point x="51" y="474" type="curve" smooth="yes"/>
      <point x="112" y="448"/>
      <point x="134" y="408"/>
      <point x="134" y="299" type="curve" smooth="yes"/>
      <point x="134" y="83" type="line" smooth="yes"/>
      <point x="134" y="14"/>
      <point x="159" y="0"/>
      <point x="180" y="0" type="curve" smooth="yes"/>
      <point x="201" y="0"/>
      <point x="216" y="8"/>
      <point x="236" y="40" type="curve" smooth="yes"/>
      <point x="432" y="350" type="line" smooth="yes"/>
      <point x="478" y="423"/>
      <point x="492" y="445"/>
      <point x="502" y="445" type="curve" smooth="yes"/>
      <point x="514" y="445"/>
      <point x="514" y="418"/>
      <point x="514" y="374" type="curve" smooth="yes"/>
      <point x="514" y="84" type="line" smooth="yes"/>
      <point x="514" y="32"/>
      <point x="485" y="-5"/>
      <point x="426" y="-46" type="curve" smooth="yes"/>
      <point x="372" y="-83"/>
      <point x="316" y="-125"/>
      <point x="316" y="-194" type="curve" smooth="yes"/>
      <point x="316" y="-268"/>
      <point x="383" y="-336"/>
      <point x="504" y="-362" type="curve" smooth="yes"/>
      <point x="509" y="-363"/>
      <point x="513" y="-363"/>
    </contour>
  </outline>
</glyph>
<glyph name="ga_ahom.alt" format="2">
  <advance width="555"/>
  <outline>
    <contour>
      <point x="151" y="-14" type="curve" smooth="yes"/>
      <point x="161" y="-14"/>
      <point x="172" y="-12"/>
      <point x="178" y="-10" type="curve" smooth="yes"/>
      <point x="323" y="38"/>
      <point x="475" y="137"/>
      <point x="475" y="326" type="curve" smooth="yes"/>
      <point x="475" y="444"/>
      <point x="411" y="560"/>
      <point x="263" y="560" type="curve" smooth="yes"/>
      <point x="139" y="560"/>
      <point x="80" y="465"/>
      <point x="80" y="399" type="curve" smooth="yes"/>
      <point x="80" y="331"/>
      <point x="117" y="293"/>
      <point x="173" y="293" type="curve" smooth="yes"/>
      <point x="220" y="293"/>
      <point x="254" y="326"/>
      <point x="254" y="366" type="curve" smooth="yes"/>
      <point x="254" y="398"/>
      <point x="236" y="412"/>
      <point x="216" y="423" type="curve" smooth="yes"/>
      <point x="202" y="431"/>
      <point x="192" y="438"/>
      <point x="192" y="451" type="curve" smooth="yes"/>
      <point x="192" y="470"/>
      <point x="213" y="493"/>
      <point x="261" y="493" type="curve" smooth="yes"/>
      <point x="320" y="493"/>
      <point x="381" y="443"/>
      <point x="381" y="338" type="curve" smooth="yes"/>
      <point x="381" y="160"/>
      <point x="208" y="94"/>
      <point x="158" y="80" type="curve" smooth="yes"/>
      <point x="120" y="69"/>
      <point x="105" y="53"/>
      <point x="105" y="30" type="curve" smooth="yes"/>
      <point x="105" y="6"/>
      <point x="125" y="-14"/>
    </contour>
  </outline>
</glyph>
<glyph name="i_u_ahom" format="2">
  <advance width="275"/>
  <outline>
    <contour>
      <point x="228" y="-140" type="curve" smooth="yes"/>
      <point x="277" y="-140"/>
      <point x="375" y="-114"/>
      <point x="375" y="-75" type="curve" smooth="yes"/>
      <point x="375" y="-61"/>
      <point x="363" y="-52"/>
      <point x="350" y="-52" type="curve" smooth="yes"/>
      <point x="341" y="-52"/>
      <point x="335" y="-54"/>
      <point x="321" y="-60" type="curve" smooth="yes"/>
      <point x="295" y="-71"/>
      <point x="263" y="-78"/>
      <point x="219" y="-78" type="curve" smooth="yes"/>
      <point x="157" y="-78"/>
      <point x="115" y="-51"/>
      <point x="115" y="60" type="curve" smooth="yes"/>
      <point x="115" y="516" type="line"/>
      <point x="179" y="558"/>
      <point x="231" y="648"/>
      <point x="231" y="770" type="curve" smooth="yes"/>
      <point x="231" y="880"/>
      <point x="186" y="968"/>
      <point x="98" y="968" type="curve" smooth="yes"/>
      <point x="-27" y="968"/>
      <point x="-100" y="807"/>
      <point x="-100" y="701" type="curve" smooth="yes"/>
      <point x="-100" y="561"/>
      <point x="-47" y="494"/>
      <point x="25" y="490" type="curve"/>
      <point x="25" y="56" type="line" smooth="yes"/>
      <point x="25" y="-105"/>
      <point x="136" y="-140"/>
    </contour>
    <contour>
      <point x="53" y="554" type="curve" smooth="yes"/>
      <point x="8" y="554"/>
      <point x="-18" y="607"/>
      <point x="-18" y="691" type="curve" smooth="yes"/>
      <point x="-18" y="859"/>
      <point x="28" y="904"/>
      <point x="83" y="904" type="curve" smooth="yes"/>
      <point x="137" y="904"/>
      <point x="149" y="839"/>
      <point x="149" y="772" type="curve" smooth="yes"/>
      <point x="149" y="656"/>
      <point x="135" y="554"/>
    </contour>
  </outline>
</glyph>
<glyph name="jha_ahom.alt" format="2">
  <advance width="953"/>
  <outline>
    <contour>
      <point x="315" y="-14" type="curve" smooth="yes"/>
      <point x="370" y="-14"/>
      <point x="437" y="13"/>
      <point x="470" y="82" type="curve"/>
      <point x="457" y="81" type="line"/>
      <point x="470" y="22"/>
      <point x="519" y="-14"/>
      <point x="588" y="-14" type="curve" smooth="yes"/>
      <point x="723" y="-14"/>
      <point x="873" y="143"/>
      <point x="873" y="345" type="curve" smooth="yes"/>
      <point x="873" y="502"/>
      <point x="796" y="560"/>
      <point x="724" y="560" type="curve" smooth="yes"/>
      <point x="688" y="560"/>
      <point x="662" y="535"/>
      <point x="662" y="500" type="curve" smooth="yes"/>
      <point x="662" y="467"/>
      <point x="685" y="444"/>
      <point x="719" y="430" type="curve" smooth="yes"/>
      <point x="755" y="415"/>
      <point x="794" y="397"/>
      <point x="794" y="324" type="curve" smooth="yes"/>
      <point x="794" y="176"/>
      <point x="715" y="48"/>
      <point x="607" y="48" type="curve" smooth="yes"/>
      <point x="552" y="48"/>
      <point x="524" y="82"/>
      <point x="524" y="175" type="curve" smooth="yes"/>
      <point x="524" y="513" type="line"/>
      <point x="586" y="543"/>
      <point x="638" y="621"/>
      <point x="638" y="730" type="curve" smooth="yes"/>
      <point x="638" y="820"/>
      <point x="599" y="891"/>
      <point x="523" y="891" type="curve" smooth="yes"/>
      <point x="414" y="891"/>
      <point x="351" y="759"/>
      <point x="351" y="673" type="curve" smooth="yes"/>
      <point x="351" y="574"/>
      <point x="384" y="520"/>
      <point x="434" y="504" type="curve"/>
      <point x="434" y="237" type="line" smooth="yes"/>
      <point x="434" y="92"/>
      <point x="384" y="49"/>
      <point x="316" y="49" type="curve" smooth="yes"/>
      <point x="246" y="49"/>
      <point x="224" y="92"/>
      <point x="224" y="219" type="curve" smooth="yes"/>
      <point x="224" y="365" type="line" smooth="yes"/>
      <point x="224" y="515"/>
      <point x="138" y="560"/>
      <point x="73" y="560" type="curve" smooth="yes"/>
      <point x="44" y="560"/>
      <point x="20" y="535"/>
      <point x="20" y="499" type="curve" smooth="yes"/>
      <point x="20" y="487"/>
      <point x="25" y="477"/>
      <point x="36" y="477" type="curve" smooth="yes"/>
      <point x="53" y="477" type="line" smooth="yes"/>
      <point x="100" y="477"/>
      <point x="134" y="451"/>
      <point x="134" y="365" type="curve" smooth="yes"/>
      <point x="134" y="219" type="line" smooth="yes"/>
      <point x="134" y="32"/>
      <point x="219" y="-14"/>
    </contour>
    <contour>
      <point x="486" y="560" type="curve" smooth="yes"/>
      <point x="451" y="560"/>
      <point x="430" y="602"/>
      <point x="430" y="666" type="curve" smooth="yes"/>
      <point x="430" y="796"/>
      <point x="466" y="831"/>
      <point x="508" y="831" type="curve" smooth="yes"/>
      <point x="550" y="831"/>
      <point x="558" y="780"/>
      <point x="558" y="729" type="curve" smooth="yes"/>
      <point x="558" y="640"/>
      <point x="548" y="560"/>
    </contour>
  </outline>
</glyph>
<glyph name="khra_ahom" format="2">
  <advance width="844"/>
  <outline>
    <contour>
      <point x="180" y="-10" type="curve" smooth="yes"/>
      <point x="204" y="-10"/>
      <point x="224" y="-2"/>
      <point x="224" y="15" type="curve" smooth="yes"/>
      <point x="224" y="20" type="line"/>
      <point x="249" y="86"/>
      <point x="296" y="198"/>
      <point x="377" y="284" type="curve"/>
      <point x="362" y="278" type="line"/>
      <point x="364" y="161"/>
      <point x="407" y="20"/>
      <point x="549" y="20" type="curve" smooth="yes"/>
      <point x="649" y="20"/>
      <point x="729" y="104"/>
      <point x="729" y="242" type="curve" smooth="yes"/>
      <point x="729" y="377"/>
      <point x="626" y="428"/>
      <point x="549" y="428" type="curve" smooth="yes"/>
      <point x="518" y="428"/>
      <point x="490" y="423"/>
      <point x="463" y="413" type="curve"/>
      <point x="486" y="506"/>
      <point x="544" y="534"/>
      <point x="608" y="534" type="curve" smooth="yes"/>
      <point x="658" y="534"/>
      <point x="686" y="522"/>
      <point x="705" y="510" type="curve" smooth="yes"/>
      <point x="715" y="504"/>
      <point x="724" y="499"/>
      <point x="733" y="499" type="curve" smooth="yes"/>
      <point x="747" y="499"/>
      <point x="764" y="514"/>
      <point x="764" y="534" type="curve" smooth="yes"/>
      <point x="764" y="560"/>
      <point x="699" y="600"/>
      <point x="608" y="600" type="curve" smooth="yes"/>
      <point x="490" y="600"/>
      <point x="391" y="519"/>
      <point x="368" y="358" type="curve"/>
      <point x="312" y="312"/>
      <point x="264" y="248"/>
      <point x="224" y="181" type="curve"/>
      <point x="224" y="365" type="line" smooth="yes"/>
      <point x="224" y="516"/>
      <point x="139" y="560"/>
      <point x="73" y="560" type="curve" smooth="yes"/>
      <point x="38" y="560"/>
      <point x="20" y="523"/>
      <point x="20" y="499" type="curve" smooth="yes"/>
      <point x="20" y="487"/>
      <point x="25" y="477"/>
      <point x="36" y="477" type="curve" smooth="yes"/>
      <point x="53" y="477" type="line" smooth="yes"/>
      <point x="104" y="477"/>
      <point x="134" y="446"/>
      <point x="134" y="362" type="curve" smooth="yes"/>
      <point x="134" y="15" type="line" smooth="yes"/>
      <point x="134" y="-4"/>
      <point x="159" y="-10"/>
    </contour>
    <contour>
      <point x="550" y="84" type="curve" smooth="yes"/>
      <point x="480" y="84"/>
      <point x="453" y="154"/>
      <point x="453" y="315" type="curve" smooth="yes"/>
      <point x="453" y="332" type="line"/>
      <point x="476" y="344"/>
      <point x="501" y="351"/>
      <point x="526" y="351" type="curve" smooth="yes"/>
      <point x="568" y="351"/>
      <point x="635" y="332"/>
      <point x="635" y="228" type="curve" smooth="yes"/>
      <point x="635" y="129"/>
      <point x="590" y="84"/>
    </contour>
  </outline>
</glyph>
<glyph name="medialLa_ahom.sm" format="2">
  <outline>
    <contour>
      <point x="-381" y="-303" type="curve" smooth="yes"/>
      <point x="-291" y="-303"/>
      <point x="-206" y="-268"/>
      <point x="-152" y="-187" type="curve" smooth="yes"/>
      <point x="-134" y="-161"/>
      <point x="-122" y="-117"/>
      <point x="-122" y="-98" type="curve" smooth="yes"/>
      <point x="-122" y="-79"/>
      <point x="-138" y="-70"/>
      <point x="-162" y="-70" type="curve" smooth="yes"/>
      <point x="-181" y="-70"/>
      <point x="-202" y="-79"/>
      <point x="-207" y="-98" type="curve" smooth="yes"/>
      <point x="-234" y="-201"/>
      <point x="-315" y="-226"/>
      <point x="-383" y="-226" type="curve" smooth="yes"/>
      <point x="-508" y="-226"/>
      <point x="-551" y="-165"/>
      <point x="-579" y="-125" type="curve" smooth="yes"/>
      <point x="-589" y="-110"/>
      <point x="-599" y="-96"/>
      <point x="-616" y="-96" type="curve" smooth="yes"/>
      <point x="-641" y="-96"/>
      <point x="-647" y="-113"/>
      <point x="-647" y="-129" type="curve" smooth="yes"/>
      <point x="-647" y="-168"/>
      <point x="-562" y="-303"/>
    </contour>
  </outline>
</glyph>
<glyph name="medialRa_ahom.desc" format="2">
  <outline>
    <contour>
      <point x="-554" y="-440" type="curve" smooth="yes"/>
      <point x="-441" y="-440"/>
      <point x="-299" y="-421"/>
      <point x="-197" y="-334" type="curve" smooth="yes"/>
      <point x="-170" y="-311"/>
      <point x="-138" y="-272"/>
      <point x="-138" y="-245" type="curve" smooth="yes"/>
      <point x="-138" y="-227"/>
      <point x="-156" y="-220"/>
      <point x="-179" y="-220" type="curve" smooth="yes"/>
      <point x="-201" y="-220"/>
      <point x="-215" y="-227"/>
      <point x="-227" y="-243" type="curve" smooth="yes"/>
      <point x="-299" y="-336"/>
      <point x="-429" y="-363"/>
      <point x="-551" y="-363" type="curve" smooth="yes"/>
      <point x="-790" y="-363"/>
      <point x="-1111" y="-239"/>
      <point x="-1111" y="174" type="curve" smooth="yes"/>
      <point x="-1111" y="580"/>
      <point x="-887" y="733"/>
      <point x="-578" y="733" type="curve" smooth="yes"/>
      <point x="-418" y="733"/>
      <point x="-313" y="697"/>
      <point x="-262" y="679" type="curve" smooth="yes"/>
      <point x="-246" y="673"/>
      <point x="-235" y="669"/>
      <point x="-223" y="669" type="curve" smooth="yes"/>
      <point x="-206" y="669"/>
      <point x="-195" y="680"/>
      <point x="-195" y="696" type="curve" smooth="yes"/>
      <point x="-195" y="712"/>
      <point x="-203" y="720"/>
      <point x="-217" y="728" type="curve" smooth="yes"/>
      <point x="-261" y="753"/>
      <point x="-388" y="800"/>
      <point x="-579" y="800" type="curve" smooth="yes"/>
      <point x="-1038" y="800"/>
      <point x="-1205" y="474"/>
      <point x="-1205" y="180" type="curve" smooth="yes"/>
      <point x="-1205" y="-336"/>
      <point x="-777" y="-440"/>
    </contour>
  </outline>
</glyph>
<glyph name="medialRa_ahom.sm" format="2">
  <outline>
    <contour>
      <point x="-455" y="-303" type="curve" smooth="yes"/>
      <point x="-372" y="-303"/>
      <point x="-255" y="-263"/>
      <point x="-190" y="-194" type="curve" smooth="yes"/>
      <point x="-163" y="-165"/>
      <point x="-137" y="-123"/>
      <point x="-137" y="-95" type="curve" smooth="yes"/>
      <point x="-137" y="-79"/>
      <point x="-150" y="-70"/>
      <point x="-181" y="-70" type="curve" smooth="yes"/>
      <point x="-206" y="-70"/>
      <point x="-220" y="-78"/>
      <point x="-228" y="-96" type="curve" smooth="yes"/>
      <point x="-272" y="-195"/>
      <point x="-380" y="-226"/>
      <point x="-458" y="-226" type="curve" smooth="yes"/>
      <point x="-719" y="-226"/>
      <point x="-796" y="27"/>
      <point x="-796" y="251" type="curve" smooth="yes"/>
      <point x="-796" y="580"/>
      <point x="-619" y="733"/>
      <point x="-410" y="733" type="curve" smooth="yes"/>
      <point x="-283" y="733"/>
      <point x="-218" y="712"/>
      <point x="-184" y="700" type="curve" smooth="yes"/>
      <point x="-171" y="695"/>
      <point x="-161" y="693"/>
      <point x="-151" y="693" type="curve" smooth="yes"/>
      <point x="-135" y="693"/>
      <point x="-122" y="703"/>
      <point x="-122" y="720" type="curve" smooth="yes"/>
      <point x="-122" y="736"/>
      <point x="-129" y="745"/>
      <point x="-144" y="752" type="curve" smooth="yes"/>
      <point x="-202" y="778"/>
      <point x="-286" y="800"/>
      <point x="-402" y="800" type="curve" smooth="yes"/>
      <point x="-679" y="800"/>
      <point x="-890" y="552"/>
      <point x="-890" y="249" type="curve" smooth="yes"/>
      <point x="-890" y="-20"/>
      <point x="-757" y="-303"/>
    </contour>
  </outline>
</glyph>
<glyph name="o_u_ahom" format="2">
  <outline>
    <contour>
      <point x="-43" y="-672" type="curve" smooth="yes"/>
      <point x="6" y="-672"/>
      <point x="104" y="-646"/>
      <point x="104" y="-607" type="curve" smooth="yes"/>
      <point x="104" y="-593"/>
      <point x="92" y="-584"/>
      <point x="75" y="-584" type="curve" smooth="yes"/>
      <point x="70" y="-584"/>
      <point x="65" y="-585"/>
      <point x="61" y="-587" type="curve" smooth="yes"/>
      <point x="24" y="-604"/>
      <point x="-8" y="-610"/>
      <point x="-52" y="-610" type="curve" smooth="yes"/>
      <point x="-94" y="-610"/>
      <point x="-136" y="-593"/>
      <point x="-136" y="-482" type="curve" smooth="yes"/>
      <point x="-136" y="-327" type="line"/>
      <point x="-86" y="-301"/>
      <point x="-50" y="-250"/>
      <point x="-50" y="-180" type="curve" smooth="yes"/>
      <point x="-50" y="-99"/>
      <point x="-95" y="-44"/>
      <point x="-179" y="-44" type="curve" smooth="yes"/>
      <point x="-275" y="-44"/>
      <point x="-334" y="-122"/>
      <point x="-334" y="-207" type="curve" smooth="yes"/>
      <point x="-334" y="-299"/>
      <point x="-282" y="-339"/>
      <point x="-226" y="-344" type="curve"/>
      <point x="-226" y="-486" type="line" smooth="yes"/>
      <point x="-226" y="-647"/>
      <point x="-135" y="-672"/>
    </contour>
    <contour>
      <point x="-198" y="-300" type="curve" smooth="yes"/>
      <point x="-244" y="-300"/>
      <point x="-259" y="-257"/>
      <point x="-259" y="-195" type="curve" smooth="yes"/>
      <point x="-259" y="-113"/>
      <point x="-227" y="-89"/>
      <point x="-181" y="-89" type="curve" smooth="yes"/>
      <point x="-136" y="-89"/>
      <point x="-125" y="-129"/>
      <point x="-125" y="-178" type="curve" smooth="yes"/>
      <point x="-125" y="-240"/>
      <point x="-138" y="-300"/>
    </contour>
  </outline>
</glyph>
<glyph name="phra_ahom" format="2">
  <advance width="1039"/>
  <outline>
    <contour>
      <point x="298" y="-14" type="curve" smooth="yes"/>
      <point x="377" y="-14"/>
      <point x="454" y="35"/>
      <point x="508" y="112" type="curve"/>
      <point x="530" y="39"/>
      <point x="583" y="-12"/>
      <point x="671" y="-12" type="curve" smooth="yes"/>
      <point x="821" y="-12"/>
      <point x="959" y="161"/>
      <point x="959" y="344" type="curve" smooth="yes"/>
      <point x="959" y="463"/>
      <point x="905" y="560"/>
      <point x="784" y="560" type="curve" smooth="yes"/>
      <point x="689" y="560"/>
      <point x="608" y="500"/>
      <point x="543" y="392" type="curve"/>
      <point x="566" y="408" type="line"/>
      <point x="565" y="451"/>
      <point x="551" y="502"/>
      <point x="521" y="548" type="curve" smooth="yes"/>
      <point x="494" y="589"/>
      <point x="477" y="618"/>
      <point x="477" y="660" type="curve" smooth="yes"/>
      <point x="477" y="723"/>
      <point x="515" y="753"/>
      <point x="560" y="753" type="curve" smooth="yes"/>
      <point x="577" y="753"/>
      <point x="591" y="750"/>
      <point x="604" y="746" type="curve" smooth="yes"/>
      <point x="613" y="743"/>
      <point x="622" y="742"/>
      <point x="630" y="742" type="curve" smooth="yes"/>
      <point x="646" y="742"/>
      <point x="658" y="751"/>
      <point x="658" y="774" type="curve" smooth="yes"/>
      <point x="658" y="798"/>
      <point x="624" y="813"/>
      <point x="558" y="813" type="curve" smooth="yes"/>
      <point x="467" y="813"/>
      <point x="398" y="748"/>
      <point x="398" y="658" type="curve" smooth="yes"/>
      <point x="398" y="603"/>
      <point x="419" y="567"/>
      <point x="443" y="528" type="curve" smooth="yes"/>
      <point x="473" y="480"/>
      <point x="504" y="430"/>
      <point x="504" y="324" type="curve" smooth="yes"/>
      <point x="504" y="176"/>
      <point x="425" y="48"/>
      <point x="317" y="48" type="curve" smooth="yes"/>
      <point x="239" y="48"/>
      <point x="224" y="90"/>
      <point x="224" y="155" type="curve" smooth="yes"/>
      <point x="224" y="385" type="line" smooth="yes"/>
      <point x="224" y="507"/>
      <point x="150" y="560"/>
      <point x="73" y="560" type="curve" smooth="yes"/>
      <point x="38" y="560"/>
      <point x="20" y="523"/>
      <point x="20" y="499" type="curve" smooth="yes"/>
      <point x="20" y="487"/>
      <point x="25" y="477"/>
      <point x="36" y="477" type="curve" smooth="yes"/>
      <point x="53" y="477" type="line" smooth="yes"/>
      <point x="96" y="477"/>
      <point x="134" y="452"/>
      <point x="134" y="370" type="curve" smooth="yes"/>
      <point x="134" y="195" type="line" smooth="yes"/>
      <point x="134" y="91"/>
      <point x="156" y="-14"/>
    </contour>
    <contour>
      <point x="700" y="65" type="curve" smooth="yes"/>
      <point x="630" y="65"/>
      <point x="590" y="122"/>
      <point x="590" y="224" type="curve" smooth="yes"/>
      <point x="590" y="378"/>
      <point x="633" y="480"/>
      <point x="748" y="480" type="curve" smooth="yes"/>
      <point x="825" y="480"/>
      <point x="865" y="426"/>
      <point x="865" y="324" type="curve" smooth="yes"/>
      <point x="865" y="186"/>
      <point x="827" y="65"/>
    </contour>
  </outline>
</glyph>
<glyph name="t_ja_ahom" format="2">
  <advance width="1142"/>
  <outline>
    <contour>
      <point x="213" y="-14" type="curve" smooth="yes"/>
      <point x="325" y="-14"/>
      <point x="382" y="80"/>
      <point x="409" y="180" type="curve"/>
      <point x="423" y="66" type="line" smooth="yes"/>
      <point x="430" y="11"/>
      <point x="451" y="10"/>
      <point x="471" y="10" type="curve" smooth="yes"/>
      <point x="484" y="10"/>
      <point x="505" y="20"/>
      <point x="514" y="54" type="curve" smooth="yes"/>
      <point x="554" y="205" type="line" smooth="yes"/>
      <point x="576" y="289"/>
      <point x="599" y="374"/>
      <point x="611" y="374" type="curve" smooth="yes"/>
      <point x="621" y="374"/>
      <point x="626" y="345"/>
      <point x="633" y="302" type="curve" smooth="yes"/>
      <point x="653" y="183" type="line" smooth="yes"/>
      <point x="670" y="80"/>
      <point x="701" y="-14"/>
      <point x="812" y="-14" type="curve" smooth="yes"/>
      <point x="937" y="-14"/>
      <point x="1062" y="143"/>
      <point x="1062" y="345" type="curve" smooth="yes"/>
      <point x="1062" y="502"/>
      <point x="983" y="560"/>
      <point x="911" y="560" type="curve" smooth="yes"/>
      <point x="875" y="560"/>
      <point x="851" y="536"/>
      <point x="851" y="503" type="curve" smooth="yes"/>
      <point x="851" y="477"/>
      <point x="868" y="448"/>
      <point x="908" y="431" type="curve" smooth="yes"/>
      <point x="944" y="416"/>
      <point x="983" y="397"/>
      <point x="983" y="324" type="curve" smooth="yes"/>
      <point x="983" y="176"/>
      <point x="914" y="48"/>
      <point x="830" y="48" type="curve" smooth="yes"/>
      <point x="783" y="48"/>
      <point x="767" y="80"/>
      <point x="750" y="177" type="curve" smooth="yes"/>
      <point x="704" y="435" type="line" smooth="yes"/>
      <point x="684" y="545"/>
      <point x="659" y="560"/>
      <point x="629" y="560" type="curve" smooth="yes"/>
      <point x="603" y="560"/>
      <point x="583" y="522"/>
      <point x="556" y="428" type="curve" smooth="yes"/>
      <point x="478" y="160" type="line"/>
      <point x="485" y="150" type="line"/>
      <point x="479" y="313" type="line" smooth="yes"/>
      <point x="474" y="453"/>
      <point x="434" y="560"/>
      <point x="315" y="560" type="curve" smooth="yes"/>
      <point x="200" y="560"/>
      <point x="60" y="364"/>
      <point x="60" y="169" type="curve" smooth="yes"/>
      <point x="60" y="33"/>
      <point x="133" y="-14"/>
    </contour>
    <contour>
      <point x="234" y="68" type="curve" smooth="yes"/>
      <point x="177" y="68"/>
      <point x="154" y="124"/>
      <point x="154" y="196" type="curve" smooth="yes"/>
      <point x="154" y="382"/>
      <point x="240" y="483"/>
      <point x="309" y="483" type="curve" smooth="yes"/>
      <point x="357" y="483"/>
      <point x="393" y="450"/>
      <point x="393" y="347" type="curve" smooth="yes"/>
      <point x="393" y="317" type="line"/>
      <point x="356" y="106"/>
      <point x="275" y="68"/>
    </contour>
  </outline>
</glyph>
